<?xml version="1.0" encoding="utf-8"?>
<!-- Generator: Adobe Illustrator 16.0.0, SVG Export Plug-In . SVG Version: 6.00 Build 0)  -->
<!DOCTYPE svg PUBLIC "-//W3C//DTD SVG 1.1//EN" "http://www.w3.org/Graphics/SVG/1.1/DTD/svg11.dtd" [
	<!ENTITY ns_flows "http://ns.adobe.com/Flows/1.0/">
	<!ENTITY ns_extend "http://ns.adobe.com/Extensibility/1.0/">
	<!ENTITY ns_ai "http://ns.adobe.com/AdobeIllustrator/10.0/">
	<!ENTITY ns_graphs "http://ns.adobe.com/Graphs/1.0/">
]>
<svg version="1.1" id="Layer_1" xmlns:x="&ns_extend;" xmlns:i="&ns_ai;" xmlns:graph="&ns_graphs;"
	 xmlns="http://www.w3.org/2000/svg" xmlns:xlink="http://www.w3.org/1999/xlink" xmlns:a="http://ns.adobe.com/AdobeSVGViewerExtensions/3.0/"
	 x="0px" y="0px" width="978.097px" height="795.135px" viewBox="0 0 978.097 795.135" enable-background="new 0 0 978.097 795.135"
	 xml:space="preserve">
<path  fill="#262121" d="M671.554,12.816c2.924,9.286,8.291,17.445,11.445,26.758
	c14.004,41.359,7.375,80.708-9.593,119.459c-3.817,8.719-7.93,17.33-13.409,24.979c-6.522,9.108-6.082,19.14-3.24,28.191
	c5.403,17.22,11.773,34.158,17.173,51.421c7.733,24.737,11.654,50.092,7.928,75.687c-2.749,18.875-11.965,35.816-22.952,51.514
	c-1.42-0.334-2.903-0.498-4.244-1.023c-21.474-8.405-43.76-10.789-66.225-6.456c-7.286,1.405-10.339,0.354-13.943-5.657
	c-2.929-4.884-7.655-8.636-13.055-11.466c-15.953-8.36-32.438-8.499-49.907-6.125c-11.968,1.625-18.777,7.168-22.681,17.767
	c-10.918-11.178-25.107-10.669-38.814-9.789c-9.363,0.601-19.785,0.437-26.385,9.581c-3.915-12.406-13.299-16.709-25.365-18.453
	c-22.27-3.22-54.146-0.179-65.173,25.194c-1.071,2.463-2.763,3.26-6.321,2.186c-17.5-5.28-34.992-4.339-52.708,0.33
	c-7.399,1.951-14.21,5.768-21.919,6.503c-7.822-13.56-15.755-26.916-20.822-42.008c-7.232-21.54-5.205-42.737-0.934-64.2
	c4.926-24.77,13.999-48.245,21.867-72.127c3.361-10.196,3.496-20.979-3.064-31.573c-18.876-30.473-30.219-63.555-30.023-99.869
	c0.149-28.307,8.443-54.153,24.249-77.639c1.841-2.735,4.142-3.773,7.276-4.351c22.129-4.074,41.629,3.168,59.86,14.438
	c29.692,18.356,51.924,44.366,71.384,72.765c5.376,7.845,10.977,11.112,20.457,10.089c35.309-3.808,70.686-3.786,106.004,0.004
	c8.684,0.932,13.787-2.227,18.82-9.576c19.621-28.653,41.951-54.964,71.898-73.589c13.164-8.187,27.305-13.976,42.988-15.448
	C654.266-0.808,665.229,0.434,671.554,12.816z"/>
<path  fill="#F5F4F3" d="M252.165,393.417c7.709-0.735,14.52-4.552,21.919-6.503
	c17.716-4.669,35.208-5.61,52.708-0.33c3.559,1.074,5.25,0.277,6.321-2.186c11.026-25.373,42.903-28.414,65.173-25.194
	c12.066,1.744,21.45,6.046,25.361,18.451c-0.298,3.625,1.522,6.055,4.218,8.256c7.278,5.939,14.577,11.869,21.562,18.144
	c4.68,4.204,8.748,3.827,13.222-0.058c7.093-6.16,14.41-12.067,21.403-18.335c2.251-2.019,5.793-3.626,4.799-7.798
	c3.903-10.599,10.713-16.142,22.681-17.767c17.47-2.373,33.954-2.235,49.907,6.125c5.399,2.83,10.126,6.582,13.055,11.466
	c3.604,6.012,6.657,7.063,13.943,5.657c22.465-4.333,44.751-1.949,66.225,6.456c1.341,0.525,2.824,0.689,4.244,1.023
	c0.002,0-0.522,0.179-0.522,0.179s0.089,0.546,0.091,0.548c-1.113,0.748-2.227,1.495-3.342,2.242
	c-5.012-0.412-9.957-0.939-14.938-1.98c-16.684-3.49-33.531-4.291-50.32-0.57c-3.348,0.742-7.926,0.428-6.559,6.822
	c1.188,5.555,3.644,5.29,8.119,4.322c4.566-0.988,9.436-0.818,14.166-0.762c13.503,0.162,25.962,4.984,38.599,8.968
	c12.392,7.785,24.88,15.419,35.192,26.035c2.248,2.313,4.199,4.612,5.096,8.877c-15.55-10.922-29.898-21.752-47.193-27.424
	c-15.059-8.04-31.32-9.792-48.036-9.179c-2.396,0.089-4.046,0.756-3.712,3.625c0.242,2.082,0.182,4.141,3.209,4.303
	c14.018,0.75,26.586,6.631,39.48,11.336c8.068,6.615,17.32,11.657,24.897,18.961c1.911,1.842,3.794,3.803,2.251,5.9
	c-2.322,3.16-4.042-0.545-5.7-1.58c-9.687-6.064-18.589-13.523-29.979-16.483c-8.771-5.67-18.516-8.258-28.748-9.912
	c-4.922-0.795-6.432,0.129-7.746,5.047c-4.853,18.159-16.088,30.797-33.197,39.258c-9.303,4.602-19.352,4.625-28.646,8.125
	c-19.963-1.162-38.675-4.971-50.271-23.801c-0.552,0.447-1.104,0.895-1.656,1.342l-0.551,0.221l-0.461-0.369
	c-0.043-0.699-0.415-1.047-1.113-1.045c-1.559-10.852-9.577-18.954-12.122-29.661c-1.018,10.633-8.462,18.434-10.312,28.243
	c-1.76,1.545-3.556,3.049-5.277,4.637c-8.648,7.994-16.674,16.686-29.916,17.133c-5.806,0.197-11.541,2.473-17.311,3.805
	c-3.33-2.291-7.322-2.479-11.066-3.129c-26.832-4.658-45.234-18.963-52.73-45.754c-0.943-3.375-2.826-3.457-5.262-2.678
	c-10.074,3.227-20.938,4.088-30.129,9.98c-18.1,6.284-32.064,19.606-47.882,28.073c9.97-14.287,24.216-24.844,39.807-33.807
	c11.525-5.189,22.946-10.76,36.022-10.752c3.529,0.004,5.87-1.525,5.642-5.205c-0.235-3.77-3.024-4.654-6.356-4.485
	c-15.662,0.797-31.117,2.522-45.335,9.915c-13.407,3.953-24.683,11.939-36.253,19.325c-2.969,1.895-5.645,4.088-10.494,4.334
	c11.334-13.469,24.885-22.346,39.045-30.442c17.705-7.5,36.037-11.212,55.328-8.866c3.551,0.432,5.49-0.43,5.724-4.556
	c0.222-3.894-0.384-5.876-4.847-6.511c-22.898-3.252-45.486-2.441-67.759,4.109C254.03,396.679,250.569,397.296,252.165,393.417z"/>
<path  fill="#F5F4F3" d="M392.572,404.728c-0.196-2.441-1.529-3.961-3.793-4.18
	c-2.782-0.27-4.47,1.411-4.606,4.082c-0.111,2.213,1.098,4.118,3.505,4.238C390.407,409.005,391.65,406.9,392.572,404.728z"/>
<path  fill="#F5F4F3" d="M567.431,398.389c-0.592-2.276-2.133-3.665-4.361-3.497
	c-2.645,0.195-4.389,1.811-3.817,4.693c0.464,2.344,2.313,3.33,4.587,2.974C566.085,402.208,567.435,400.804,567.431,398.389z"/>
<path  fill="#F5F4F3" d="M547.815,421.789c-0.627-2.256-2.193-3.65-4.461-3.463
	c-2.227,0.184-3.896,1.588-3.799,4.105c0.102,2.623,1.826,3.598,4.229,3.379C546.14,425.596,547.536,424.238,547.815,421.789z"/>
<path  fill="#262121" d="M293.19,436.406c9.191-5.893,20.055-6.754,30.129-9.98
	c2.436-0.779,4.318-0.697,5.262,2.678c7.496,26.792,25.898,41.096,52.73,45.754c3.744,0.65,7.736,0.838,11.064,3.127
	c1.034,2.24,0.36,4.369-0.439,6.488c-23.057-5.541-45.298-13.203-65.906-25.176c-1.729-1.004-3.828-1.375-5.751-2.043
	c0,0-0.166,0.107-0.168,0.107c-0.765-0.563-1.526-1.129-2.288-1.693C310.005,448.745,300.29,444.25,293.19,436.406z"/>
<path  fill="#262121" d="M255.832,397.539c22.272-6.551,44.86-7.361,67.759-4.109
	c4.463,0.635,5.068,2.617,4.847,6.511c-0.233,4.126-2.173,4.987-5.724,4.556c-19.291-2.347-37.623,1.366-55.328,8.866
	C263.545,408.092,259.688,402.817,255.832,397.539z"/>
<path  fill="#262121" d="M275.088,420.145c14.218-7.393,29.673-9.118,45.335-9.915
	c3.332-0.169,6.121,0.715,6.356,4.485c0.229,3.68-2.112,5.209-5.642,5.205c-13.076-0.008-24.497,5.563-36.022,10.752
	C281.774,427.162,278.433,423.654,275.088,420.145z"/>
<path  fill="#CDB8AD" d="M391.937,484.473c0.8-2.119,1.474-4.248,0.439-6.488
	c5.771-1.33,11.507-3.605,17.313-3.803c13.242-0.447,21.268-9.139,29.916-17.133c1.722-1.588,3.518-3.092,5.277-4.637
	c7.305,3.23,15.098-1.318,22.434,1.418c0.698-0.002,1.07,0.346,1.112,1.045c0.113,0.174,0.253,0.504,0.342,0.49
	c0.235-0.035,0.448-0.217,0.671-0.342c0.553-0.447,1.104-0.895,1.656-1.342c11.596,18.83,30.308,22.639,50.271,23.799
	c-1.182,2.689-4.695,3.654-5.109,6.91C474.837,513.219,433.394,507.579,391.937,484.473z"/>
<path  fill="#262121" d="M516.259,484.391c0.414-3.256,3.928-4.221,5.109-6.91
	c9.293-3.498,19.342-3.521,28.645-8.123c17.109-8.461,28.345-21.1,33.197-39.258c1.314-4.918,2.824-5.842,7.746-5.047
	c10.232,1.654,19.977,4.242,28.748,9.912c-18.395,14.377-37.751,27.192-59.534,35.954C545.921,476.649,531.54,482,516.259,484.391z"
	/>
<path  fill="#262121" d="M644.199,410.594c-12.637-3.983-25.096-8.806-38.599-8.968
	c-4.73-0.057-9.6-0.227-14.166,0.762c-4.476,0.968-6.932,1.232-8.119-4.322c-1.367-6.395,3.211-6.08,6.559-6.822
	c16.789-3.721,33.637-2.92,50.32,0.57c4.98,1.041,9.926,1.568,14.938,1.98c0.119,0.717,0.238,1.434,0.359,2.149
	C651.728,400.828,647.962,405.711,644.199,410.594z"/>
<path  fill="#262121" d="M628.235,428.166c-12.895-4.705-25.463-10.586-39.48-11.336
	c-3.027-0.162-2.967-2.221-3.209-4.303c-0.334-2.869,1.315-3.536,3.712-3.625c16.716-0.612,32.978,1.14,48.036,9.179
	C634.271,421.443,631.253,424.805,628.235,428.166z"/>
<path  fill="#F5F4F3" d="M655.491,395.944c-0.121-0.716-0.24-1.433-0.359-2.149
	c1.115-0.747,2.229-1.494,3.342-2.242c3.809,1.797,8.608,1.781,11.53,6.446C664.572,399.574,660.274,395.675,655.491,395.944z"/>
<path  fill="#CDB8AD" d="M239.476,89.363c2.99-21.966,6.758-43.833,14.173-64.911
	c1.604-4.562,4.804-6.23,9.589-6.181c20.166,0.205,35.131,11.087,48.948,23.95c21.304,19.831,37.148,43.872,51.995,68.653
	c1.791,2.993,1.838,4.346-1.361,6.194c-28.318,16.363-50.419,39.815-72.082,63.725c-2.445,2.697-3.541,2.947-6.646,0.138
	c-19.575-17.707-32.387-39.425-38.813-64.795C243.05,107.353,237.081,99.257,239.476,89.363z"/>
<path  fill="#CDB8AD" d="M672.39,82.387c1.013,40.954-13.373,72.472-40.768,98.523
	c-3.819,3.631-5.154,3.863-9.262-0.615c-18.666-20.347-37.384-40.75-60.512-56.39c-13.265-8.968-13.164-9.155-4.33-23.167
	c15.168-24.059,31.555-47.092,54.313-64.805c7.713-6.003,15.855-11.067,25.333-13.923c17.149-5.166,24.133-1.899,28.568,14.885
	C669.911,52.696,673.687,68.651,672.39,82.387z"/>
<path  fill="#F0BD3E" d="M350.577,232.595c30.416-2.109,48.296,18.292,58.324,40.26
	c4.073,8.923,5.963,18.587,9.115,27.801c2.772,8.11,0.953,14.084-4.391,20.193c-21.135,24.16-54.996,37.055-82.646,24.568
	c-21.95-9.914-33.2-27.993-39.903-49.891c-0.256-0.836-0.103-1.791-0.298-2.655c-2.022-8.933-5.892-18.314-1.136-26.91
	c7.013-12.678,18.299-21.63,31.432-27.323C330.794,234.426,341.091,230.725,350.577,232.595z"/>
<path  fill="#F0BD3E" d="M553.272,350.299c-25.445-1.628-45.971-13.98-61.887-34.752
	c-1.332-1.739-2.292-3.533-1.906-5.721c4.438-25.123,11.748-48.958,32.016-66.353c15.433-13.247,34.008-13.193,52.307-9.631
	c16.564,3.223,30.322,12.331,41.273,25.574c4.441,5.374,6.733,10.733,5.928,17.802c-3.035,26.673-12.484,49.781-36.226,64.616
	C575.647,347.541,565.251,350.202,553.272,350.299z"/>
<path  fill="#F06A46" d="M488.851,377.865c0.994,4.171-2.548,5.779-4.799,7.798
	c-6.993,6.268-14.311,12.175-21.403,18.335c-4.474,3.885-8.542,4.262-13.222,0.058c-6.984-6.274-14.283-12.204-21.562-18.144
	c-2.695-2.201-4.516-4.631-4.218-8.256c6.604-9.142,17.025-8.979,26.389-9.579C463.743,367.195,477.933,366.687,488.851,377.865z"/>
<path  fill="#262121" d="M467.315,453.831c-7.336-2.736-15.129,1.813-22.434-1.418
	c1.85-9.809,9.294-17.61,10.312-28.243C457.738,434.877,465.757,442.979,467.315,453.831z"/>
<path  fill="#262121" d="M469.44,455.024c-0.223,0.125-0.436,0.307-0.671,0.342
	c-0.089,0.014-0.229-0.316-0.342-0.49c0.001,0,0.462,0.369,0.462,0.369L469.44,455.024z"/>
<path  fill="#262121" d="M314.741,288.773c-0.131-24.449,18.941-44.806,42.092-44.927
	c23.316-0.123,42.501,20.08,42.361,44.61c-0.14,24.756-18.067,43.716-41.646,44.045
	C333.792,332.833,314.872,313.505,314.741,288.773z"/>
<path  fill="#262121" d="M355.307,288.278c0.384-12.58-4.727-22.835-5.358-33.805
	c-0.178-3.109-2.272-2.996-4.447-2.321c-8.467,2.628-14.912,7.937-19.973,15.105c-1.54,2.182-1.228,3.856,1.034,5.116
	C335.887,277.561,345.23,282.707,355.307,288.278z"/>
<path  fill="#262121" d="M594.217,288.437c-0.175,24.266-19.048,43.98-42.017,43.881
	c-24.48-0.104-43.199-19.845-42.641-44.964c0.535-24.097,19.582-43.645,42.463-43.58C575.313,243.84,594.39,264.033,594.217,288.437
	z"/>
<path  fill="#262121" d="M552.372,287.521c-1.768-10.928-3.285-20.53-4.881-30.119
	c-0.862-5.177-2.765-6.441-8.375-4.194c-6.979,2.798-11.475,7.942-16.37,12.906c-1.563,1.587-2.241,4.601-0.37,5.59
	C532.056,276.821,540.998,283.497,552.372,287.521z"/>
<path  fill="#F5F4F3" d="M355.307,288.278c-10.076-5.571-19.42-10.717-28.744-15.905
	c-2.262-1.26-2.574-2.935-1.034-5.116c5.061-7.168,11.506-12.477,19.973-15.105c2.175-0.675,4.27-0.788,4.447,2.321
	C350.58,265.443,355.69,275.698,355.307,288.278z"/>
<path  fill="#F5F4F3" d="M552.372,287.521c-11.374-4.024-20.316-10.7-29.996-15.817
	c-1.871-0.989-1.193-4.003,0.37-5.59c4.896-4.964,9.392-10.107,16.37-12.906c5.61-2.247,7.513-0.983,8.375,4.194
	C549.087,266.991,550.604,276.593,552.372,287.521z"/>
<path fill="#E03B4F" d="M659.788,184.013c0.255-0.355,0.492-0.724,0.742-1.083h-31.531c-1.414,0.922-2.551,0.965-3.992,0h-5.945
	H248.653c0.118,0.192,0.23,0.388,0.349,0.58c6.562,10.593,6.427,21.376,3.065,31.573c-5.057,15.349-10.599,30.533-15.229,45.997
	h55.65c7.026-10.123,17.004-17.51,28.378-22.44c9.719-4.212,20.015-7.913,29.501-6.043c24.849-1.724,41.327,11.579,51.995,28.483
	h103.699c4.062-6.369,9.032-12.291,15.224-17.605c15.433-13.247,34.009-13.193,52.308-9.631
	c16.564,3.223,30.322,12.331,41.272,25.574c0.458,0.554,0.876,1.107,1.288,1.662h56.738c-5.219-16.381-11.208-32.505-16.345-48.875
	C653.705,203.152,653.265,193.121,659.788,184.013z"/>
<path fill="#E03B4F" d="M978.097,86.629l-263.453,0.374l-27.745,25.751c-2.773,16.165-7.985,32.133-14.933,48.001
	c-3.816,8.719-7.93,17.33-13.408,24.978c-6.523,9.109-6.083,19.14-3.241,28.192c5.403,17.22,11.774,34.158,17.173,51.421
	c1.943,6.215,3.645,12.47,5.047,18.757h121.541l48.258-73.281H714.759l-0.008-7.926L738.7,159.91h191.139L978.097,86.629z"/>
<polygon fill="#F5F4F3" points="48.52,790.502 6.285,790.502 37.709,683.66 80.194,683.66 "/>
<path fill="#F5F4F3" d="M82.457,531.818h41.48L88.239,653.493h2.263l59.078-121.675h43.491l-63.101,124.44
	c3.685,0.337,6.662,1.343,8.925,3.017c2.263,1.677,3.896,3.771,4.902,6.284c1.005,2.515,1.422,5.405,1.257,8.674
	c-0.169,3.268-0.754,6.661-1.76,10.181L111.87,790.502H69.385l30.419-102.569c1.006-3.351,1.088-5.907,0.251-7.667
	c-0.84-1.76-3.103-2.64-6.787-2.64H39.469L82.457,531.818z"/>
<path fill="#F5F4F3" d="M295.633,577.069c1.674-5.865-0.671-8.799-7.039-8.799h-74.412l23.128-36.452h82.709
	c9.553,0,16.297,2.852,20.237,8.547c3.936,5.7,4.65,12.821,2.137,21.369L283.817,763.1c-1.508,5.366-3.731,9.805-6.662,13.324
	c-2.934,3.52-6.245,6.328-9.93,8.422c-3.688,2.098-7.668,3.563-11.941,4.399c-4.273,0.841-8.591,1.257-12.946,1.257h-38.715
	c-4.525,0-8.674-0.754-12.444-2.263c-3.771-1.508-6.831-3.728-9.176-6.662c-2.349-2.93-3.814-6.575-4.399-10.936
	c-0.589-4.356-0.043-9.467,1.634-15.335l53.296-181.004h42.234l-51.033,173.211c-1.344,4.36,0.165,6.536,4.525,6.536h10.307
	c2.177,0,3.811-0.542,4.902-1.634c1.088-1.089,1.968-2.723,2.64-4.902L295.633,577.069z"/>
<polygon fill="#F5F4F3" points="456.775,574.303 392.921,790.502 350.688,790.502 414.29,574.303 "/>
<polygon fill="#F5F4F3" points="377.335,568.27 393.173,531.818 506.552,531.818 495.741,568.27 "/>
<polygon fill="#F5F4F3" points="601.825,574.303 549.535,751.537 572.161,751.537 560.597,790.502 476.38,790.502 487.692,751.537
	507.05,751.537 559.34,574.303 "/>
<polygon fill="#F5F4F3" points="535.709,568.27 550.792,531.818 637.021,531.818 626.211,568.27 "/>
<polygon fill="#F5F4F3" points="647.829,790.502 605.595,790.502 637.019,683.66 679.504,683.66 "/>
<path fill="#F5F4F3" d="M681.767,531.818h41.48l-35.698,121.675h2.263l59.078-121.675h43.491l-63.101,124.44
	c3.685,0.337,6.662,1.343,8.925,3.017c2.263,1.677,3.896,3.771,4.902,6.284c1.005,2.515,1.422,5.405,1.257,8.674
	c-0.169,3.268-0.754,6.661-1.76,10.181L711.18,790.502h-42.485l30.419-102.569c1.006-3.351,1.088-5.907,0.251-7.667
	c-0.84-1.76-3.103-2.64-6.787-2.64h-53.799L681.767,531.818z"/>
<polygon fill="#F5F4F3" points="882.374,574.303 830.084,751.537 852.71,751.537 841.146,790.502 756.929,790.502 768.241,751.537
	787.599,751.537 839.889,574.303 "/>
<polygon fill="#F5F4F3" points="816.258,568.27 831.341,531.818 917.569,531.818 906.76,568.27 "/>
</svg>
