<?xml version="1.0" encoding="utf-8"?>
<!-- Generator: Adobe Illustrator 16.0.0, SVG Export Plug-In . SVG Version: 6.00 Build 0)  -->
<!DOCTYPE svg PUBLIC "-//W3C//DTD SVG 1.1//EN" "http://www.w3.org/Graphics/SVG/1.1/DTD/svg11.dtd" [
	<!ENTITY ns_flows "http://ns.adobe.com/Flows/1.0/">
	<!ENTITY ns_extend "http://ns.adobe.com/Extensibility/1.0/">
	<!ENTITY ns_ai "http://ns.adobe.com/AdobeIllustrator/10.0/">
	<!ENTITY ns_graphs "http://ns.adobe.com/Graphs/1.0/">
]>
<svg version="1.1" id="Layer_1" xmlns:x="&ns_extend;" xmlns:i="&ns_ai;" xmlns:graph="&ns_graphs;"
	 xmlns="http://www.w3.org/2000/svg" xmlns:xlink="http://www.w3.org/1999/xlink" xmlns:a="http://ns.adobe.com/AdobeSVGViewerExtensions/3.0/"
	 x="0px" y="0px" width="928.765px" height="285.413px" viewBox="0 0 928.765 285.413" enable-background="new 0 0 928.765 285.413"
	 xml:space="preserve">
<path fill="#F5F4F3" d="51.52,270.78 9.285,270.78 40.709,163.938 83.194,163.938 "/>
<path fill="#F5F4F3" d="M85.457,12.096h41.48L91.239,133.771h2.263L152.58,12.096h43.491l-63.101,124.44
	c3.685,0.337,6.662,1.343,8.925,3.017c2.263,1.677,3.896,3.771,4.902,6.284c1.005,2.515,1.422,5.405,1.257,8.674
	c-0.169,3.268-0.754,6.661-1.76,10.181L114.87,270.78H72.385l30.419-102.569c1.006-3.351,1.088-5.907,0.251-7.667
	c-0.84-1.76-3.103-2.64-6.787-2.64H42.469L85.457,12.096z"/>
<path fill="#F5F4F3" d="M298.633,57.347c1.674-5.865-0.671-8.799-7.039-8.799h-74.412l23.128-36.452h82.709
	c9.553,0,16.297,2.852,20.237,8.547c3.936,5.7,4.65,12.821,2.137,21.369l-58.575,201.366c-1.508,5.366-3.731,9.805-6.662,13.324
	c-2.934,3.52-6.245,6.328-9.93,8.422c-3.688,2.098-7.668,3.563-11.941,4.399c-4.273,0.841-8.591,1.257-12.946,1.257h-38.715
	c-4.525,0-8.674-0.754-12.444-2.263c-3.771-1.508-6.831-3.728-9.176-6.662c-2.349-2.93-3.814-6.575-4.399-10.936
	c-0.589-4.356-0.043-9.467,1.634-15.335l53.296-181.004h42.234l-51.033,173.211c-1.344,4.36,0.165,6.536,4.525,6.536h10.307
	c2.177,0,3.811-0.542,4.902-1.634c1.088-1.089,1.968-2.723,2.64-4.902L298.633,57.347z"/>
<path fill="#F5F4F3" d="459.775,54.581 395.921,270.78 353.688,270.78 417.29,54.581 "/>
<path fill="#F5F4F3" d="380.335,48.548 396.173,12.096 509.552,12.096 498.741,48.548 "/>
<path fill="#F5F4F3" d="604.825,54.581 552.535,231.814 575.161,231.814 563.597,270.78 479.38,270.78 490.692,231.814
	510.05,231.814 562.34,54.581 "/>
<path fill="#F5F4F3" d="538.709,48.548 553.792,12.096 640.021,12.096 629.211,48.548 "/>
<path fill="#F5F4F3" d="650.829,270.78 608.595,270.78 640.019,163.938 682.504,163.938 "/>
<path fill="#F5F4F3" d="M684.767,12.096h41.48l-35.698,121.675h2.263L751.89,12.096h43.491l-63.101,124.44
	c3.685,0.337,6.662,1.343,8.925,3.017c2.263,1.677,3.896,3.771,4.902,6.284c1.005,2.515,1.422,5.405,1.257,8.674
	c-0.169,3.268-0.754,6.661-1.76,10.181L714.18,270.78h-42.485l30.419-102.569c1.006-3.351,1.088-5.907,0.251-7.667
	c-0.84-1.76-3.103-2.64-6.787-2.64h-53.799L684.767,12.096z"/>
<path fill="#F5F4F3" d="885.374,54.581 833.084,231.814 855.71,231.814 844.146,270.78 759.929,270.78 771.241,231.814
	790.599,231.814 842.889,54.581 "/>
<path fill="#F5F4F3" d="819.258,48.548 834.341,12.096 920.569,12.096 909.76,48.548 "/>
</svg>
