<?xml version="1.0" encoding="utf-8"?>
<!-- Generator: Adobe Illustrator 16.0.0, SVG Export Plug-In . SVG Version: 6.00 Build 0)  -->
<!DOCTYPE svg PUBLIC "-//W3C//DTD SVG 1.1//EN" "http://www.w3.org/Graphics/SVG/1.1/DTD/svg11.dtd">
<svg version="1.1" id="Layer_1" xmlns="http://www.w3.org/2000/svg" xmlns:xlink="http://www.w3.org/1999/xlink" x="0px" y="0px"
	 width="688.909px" height="504.963px" viewBox="0 0 688.909 504.963" enable-background="new 0 0 688.909 504.963"
	 xml:space="preserve">
<path fill="#262121" d="M452.366,13.816c2.924,9.286,8.291,17.445,11.443,26.758c14.006,41.359,7.375,80.708-9.594,119.459
	c-3.814,8.719-7.93,17.33-13.408,24.979c-6.521,9.108-6.082,19.14-3.238,28.191c5.4,17.22,11.771,34.158,17.172,51.42
	c7.732,24.738,11.654,50.092,7.928,75.688c-2.748,18.875-11.965,35.816-22.951,51.514c-1.42-0.334-2.904-0.498-4.244-1.023
	c-21.475-8.404-43.76-10.787-66.225-6.455c-7.286,1.404-10.339,0.354-13.943-5.656c-2.929-4.885-7.653-8.637-13.055-11.467
	c-15.953-8.359-32.438-8.498-49.907-6.125c-11.968,1.625-18.775,7.168-22.681,17.768c-10.918-11.178-25.107-10.67-38.814-9.789
	c-9.361,0.6-19.783,0.438-26.385,9.58c-3.915-12.406-13.299-16.709-25.365-18.453c-22.27-3.219-54.146-0.178-65.173,25.195
	c-1.071,2.463-2.763,3.26-6.321,2.186c-17.5-5.281-34.991-4.34-52.707,0.33c-7.398,1.951-14.21,5.768-21.919,6.502
	c-7.822-13.559-15.755-26.916-20.822-42.008c-7.231-21.539-5.204-42.736-0.935-64.199c4.927-24.77,13.999-48.245,21.867-72.127
	c3.36-10.196,3.496-20.979-3.063-31.573C11.149,154.037-0.194,120.955,0.003,84.64C0.151,56.333,8.445,30.487,24.252,7.001
	c1.841-2.735,4.143-3.773,7.275-4.351c22.129-4.074,41.629,3.168,59.859,14.438c29.692,18.356,51.924,44.366,71.384,72.765
	c5.376,7.845,10.979,11.112,20.457,10.089c35.311-3.808,70.688-3.786,106.005,0.004c8.685,0.932,13.786-2.227,18.819-9.576
	c19.621-28.653,41.951-54.964,71.898-73.589c13.165-8.187,27.305-13.976,42.987-15.448C435.077,0.192,446.04,1.435,452.366,13.816z"
	/>
<path fill="#F5F4F3" d="M32.977,394.417c7.709-0.734,14.521-4.551,21.919-6.502c17.716-4.67,35.207-5.609,52.707-0.33
	c3.561,1.074,5.25,0.277,6.321-2.186c11.026-25.373,42.903-28.414,65.173-25.195c12.066,1.744,21.45,6.047,25.361,18.451
	c-0.298,3.625,1.522,6.055,4.218,8.256c7.278,5.939,14.577,11.869,21.563,18.146c4.68,4.201,8.748,3.824,13.222-0.061
	c7.093-6.16,14.41-12.066,21.403-18.334c2.251-2.02,5.793-3.627,4.799-7.799c3.903-10.598,10.713-16.141,22.681-17.766
	c17.472-2.373,33.954-2.236,49.907,6.125c5.399,2.828,10.126,6.582,13.055,11.465c3.604,6.012,6.657,7.063,13.943,5.658
	c22.464-4.334,44.751-1.949,66.224,6.455c1.344,0.525,2.824,0.689,4.244,1.023c0.002,0-0.52,0.178-0.52,0.178
	s0.088,0.547,0.09,0.549c-1.113,0.748-2.227,1.494-3.342,2.242c-5.014-0.412-9.957-0.939-14.938-1.98
	c-16.684-3.49-33.531-4.291-50.319-0.57c-3.35,0.742-7.928,0.428-6.561,6.822c1.188,5.555,3.646,5.291,8.119,4.324
	c4.566-0.988,9.437-0.818,14.167-0.764c13.502,0.162,25.961,4.982,38.598,8.967c12.395,7.785,24.883,15.42,35.193,26.035
	c2.248,2.314,4.199,4.613,5.096,8.877c-15.551-10.922-29.896-21.752-47.191-27.424c-15.061-8.039-31.32-9.791-48.037-9.18
	c-2.396,0.09-4.046,0.758-3.712,3.625c0.242,2.082,0.182,4.143,3.209,4.305c14.018,0.75,26.586,6.631,39.479,11.336
	c8.068,6.615,17.32,11.656,24.896,18.961c1.912,1.842,3.795,3.803,2.252,5.9c-2.322,3.158-4.043-0.545-5.701-1.58
	c-9.688-6.064-18.588-13.523-29.979-16.484c-8.771-5.67-18.516-8.258-28.747-9.912c-4.924-0.795-6.434,0.129-7.746,5.047
	c-4.854,18.16-16.088,30.799-33.197,39.26c-9.303,4.602-19.354,4.625-28.646,8.125c-19.963-1.162-38.675-4.973-50.271-23.803
	c-0.552,0.447-1.104,0.896-1.656,1.344l-0.551,0.221l-0.461-0.369c-0.043-0.699-0.415-1.047-1.113-1.045
	c-1.559-10.852-9.577-18.953-12.122-29.66c-1.018,10.633-8.462,18.436-10.312,28.242c-1.762,1.545-3.558,3.049-5.277,4.637
	c-8.647,7.994-16.674,16.688-29.916,17.133c-5.806,0.197-11.541,2.475-17.311,3.807c-3.33-2.291-7.322-2.479-11.066-3.129
	c-26.832-4.658-45.234-18.963-52.729-45.754c-0.942-3.375-2.825-3.457-5.263-2.68c-10.074,3.229-20.938,4.088-30.129,9.98
	c-18.101,6.285-32.063,19.605-47.882,28.074c9.97-14.287,24.216-24.846,39.808-33.809c11.524-5.188,22.945-10.76,36.021-10.752
	c3.528,0.004,5.87-1.523,5.642-5.205c-0.233-3.771-3.022-4.652-6.354-4.484c-15.662,0.797-31.117,2.521-45.336,9.916
	c-13.406,3.951-24.683,11.938-36.253,19.322c-2.969,1.896-5.646,4.088-10.494,4.334c11.335-13.469,24.886-22.346,39.046-30.439
	c17.704-7.5,36.037-11.213,55.328-8.867c3.551,0.434,5.488-0.43,5.724-4.555c0.222-3.896-0.384-5.877-4.847-6.512
	c-22.898-3.252-45.486-2.441-67.76,4.109C34.842,397.68,31.381,398.295,32.977,394.417z"/>
<path fill="#F5F4F3" d="M173.384,405.729c-0.196-2.441-1.527-3.961-3.793-4.182c-2.782-0.27-4.47,1.412-4.604,4.082
	c-0.111,2.213,1.098,4.119,3.505,4.238C171.219,410.004,172.462,407.899,173.384,405.729z"/>
<path fill="#F5F4F3" d="M348.243,399.391c-0.592-2.277-2.133-3.666-4.361-3.498c-2.645,0.193-4.389,1.811-3.815,4.691
	c0.464,2.346,2.313,3.33,4.587,2.977C346.898,403.208,348.247,401.805,348.243,399.391z"/>
<path fill="#F5F4F3" d="M328.627,422.79c-0.627-2.256-2.193-3.648-4.461-3.463c-2.227,0.184-3.896,1.588-3.799,4.104
	c0.102,2.623,1.826,3.6,4.229,3.379C326.952,426.596,328.347,425.239,328.627,422.79z"/>
<path fill="#262121" d="M74.002,437.407c9.191-5.895,20.055-6.754,30.129-9.98c2.438-0.777,4.318-0.697,5.262,2.678
	c7.496,26.793,25.898,41.098,52.73,45.756c3.744,0.648,7.736,0.838,11.064,3.127c1.032,2.238,0.358,4.367-0.439,6.486
	c-23.057-5.541-45.298-13.203-65.906-25.176c-1.729-1.004-3.828-1.375-5.751-2.043c0,0-0.166,0.107-0.168,0.107
	c-0.765-0.564-1.524-1.129-2.288-1.693C90.818,449.745,81.101,445.25,74.002,437.407z"/>
<path fill="#262121" d="M36.644,398.54c22.271-6.551,44.859-7.361,67.76-4.109c4.463,0.635,5.066,2.617,4.847,6.51
	c-0.233,4.127-2.173,4.986-5.724,4.557c-19.291-2.348-37.624,1.365-55.328,8.865C44.357,409.092,40.5,403.817,36.644,398.54z"/>
<path fill="#262121" d="M55.9,421.147c14.219-7.395,29.674-9.119,45.336-9.916c3.332-0.168,6.121,0.715,6.354,4.484
	c0.229,3.682-2.111,5.209-5.642,5.205c-13.076-0.008-24.497,5.563-36.021,10.752C62.586,428.163,59.245,424.655,55.9,421.147z"/>
<path fill="#CDB8AD" d="M172.749,485.473c0.8-2.119,1.474-4.248,0.439-6.486c5.771-1.33,11.507-3.605,17.313-3.805
	c13.242-0.445,21.268-9.139,29.916-17.133c1.722-1.588,3.518-3.092,5.277-4.637c7.305,3.229,15.098-1.318,22.434,1.418
	c0.698-0.002,1.07,0.346,1.112,1.045c0.111,0.174,0.253,0.504,0.342,0.49c0.235-0.035,0.448-0.217,0.671-0.342
	c0.553-0.447,1.104-0.896,1.656-1.344c11.596,18.83,30.308,22.641,50.271,23.801c-1.182,2.688-4.693,3.652-5.107,6.908
	C255.65,514.219,214.206,508.579,172.749,485.473z"/>
<path fill="#262121" d="M297.072,485.391c0.414-3.256,3.928-4.221,5.107-6.908c9.293-3.498,19.342-3.521,28.646-8.123
	c17.107-8.461,28.345-21.102,33.197-39.26c1.313-4.918,2.822-5.842,7.744-5.047c10.232,1.654,19.978,4.242,28.748,9.912
	c-18.394,14.377-37.75,27.191-59.532,35.953C326.734,477.649,312.351,483,297.072,485.391z"/>
<path fill="#262121" d="M425.011,411.594c-12.637-3.982-25.096-8.807-38.6-8.969c-4.73-0.057-9.599-0.227-14.166,0.764
	c-4.478,0.969-6.932,1.23-8.119-4.322c-1.367-6.396,3.211-6.08,6.559-6.822c16.789-3.721,33.638-2.92,50.32,0.57
	c4.98,1.041,9.926,1.566,14.939,1.979c0.117,0.719,0.236,1.436,0.357,2.15C432.54,401.829,428.775,406.711,425.011,411.594z"/>
<path fill="#262121" d="M409.046,429.167c-12.895-4.705-25.463-10.586-39.478-11.336c-3.027-0.162-2.969-2.223-3.209-4.305
	c-0.334-2.867,1.313-3.535,3.712-3.625c16.715-0.611,32.977,1.141,48.036,9.18C415.083,422.444,412.066,425.805,409.046,429.167z"/>
<path fill="#F5F4F3" d="M436.302,396.944c-0.121-0.715-0.238-1.434-0.357-2.148c1.113-0.748,2.229-1.494,3.342-2.242
	c3.809,1.797,8.607,1.781,11.531,6.445C445.384,400.575,441.085,396.674,436.302,396.944z"/>
<path fill="#CDB8AD" d="M20.288,90.363c2.989-21.966,6.758-43.833,14.173-64.911c1.604-4.562,4.805-6.23,9.589-6.181
	c20.166,0.205,35.131,11.087,48.948,23.95c21.304,19.831,37.148,43.872,51.995,68.653c1.791,2.993,1.838,4.346-1.361,6.194
	c-28.316,16.363-50.419,39.815-72.082,63.725c-2.444,2.697-3.541,2.947-6.646,0.138c-19.574-17.707-32.387-39.425-38.813-64.795
	C23.862,108.354,17.893,100.257,20.288,90.363z"/>
<path fill="#CDB8AD" d="M453.202,83.388c1.012,40.954-13.373,72.472-40.77,98.523c-3.818,3.631-5.152,3.863-9.262-0.615
	c-18.666-20.347-37.384-40.75-60.512-56.39c-13.267-8.968-13.164-9.155-4.33-23.167c15.168-24.059,31.555-47.092,54.313-64.805
	c7.713-6.003,15.855-11.067,25.332-13.923c17.15-5.166,24.135-1.899,28.568,14.885C450.722,53.696,454.499,69.651,453.202,83.388z"
	/>
<path fill="#F0BD3E" d="M131.388,233.595c30.416-2.109,48.296,18.292,58.324,40.261c4.073,8.922,5.963,18.586,9.115,27.801
	c2.771,8.109,0.953,14.084-4.391,20.193c-21.137,24.158-54.996,37.055-82.646,24.566c-21.95-9.914-33.2-27.992-39.902-49.891
	c-0.257-0.836-0.104-1.791-0.299-2.654c-2.021-8.934-5.892-18.314-1.136-26.91c7.013-12.677,18.299-21.63,31.432-27.323
	C111.607,235.426,121.904,231.726,131.388,233.595z"/>
<path fill="#F0BD3E" d="M334.084,351.299c-25.445-1.629-45.971-13.98-61.887-34.752c-1.332-1.738-2.292-3.533-1.906-5.721
	c4.438-25.123,11.748-48.959,32.016-66.353c15.435-13.247,34.01-13.193,52.309-9.631c16.563,3.223,30.32,12.331,41.271,25.574
	c4.441,5.373,6.734,10.732,5.93,17.801c-3.035,26.674-12.484,49.781-36.227,64.617C356.459,348.542,346.062,351.202,334.084,351.299
	z"/>
<path fill="#F06A46" d="M269.663,378.866c0.994,4.17-2.548,5.779-4.799,7.797c-6.993,6.27-14.313,12.176-21.403,18.336
	c-4.474,3.885-8.542,4.262-13.222,0.059c-6.984-6.273-14.283-12.205-21.563-18.145c-2.693-2.201-4.516-4.631-4.218-8.256
	c6.604-9.143,17.025-8.98,26.389-9.58C244.554,368.196,258.745,367.688,269.663,378.866z"/>
<path fill="#262121" d="M248.127,454.831c-7.336-2.736-15.129,1.813-22.434-1.418c1.85-9.811,9.294-17.609,10.312-28.242
	C238.55,435.877,246.57,443.979,248.127,454.831z"/>
<path fill="#262121" d="M250.252,456.024c-0.223,0.125-0.436,0.307-0.671,0.342c-0.089,0.014-0.229-0.316-0.342-0.49
	c0.001,0,0.462,0.369,0.462,0.369L250.252,456.024z"/>
<path fill="#262121" d="M95.552,289.774c-0.131-24.449,18.941-44.807,42.092-44.927c23.316-0.123,42.503,20.08,42.361,44.609
	c-0.14,24.756-18.065,43.717-41.646,44.045C114.603,333.833,95.683,314.504,95.552,289.774z"/>
<path fill="#262121" d="M136.119,289.278c0.384-12.58-4.729-22.834-5.358-33.804c-0.178-3.109-2.271-2.996-4.445-2.321
	c-8.469,2.628-14.912,7.936-19.975,15.104c-1.54,2.184-1.228,3.857,1.034,5.117C116.699,278.561,126.042,283.708,136.119,289.278z"
	/>
<path fill="#262121" d="M375.03,289.438c-0.177,24.266-19.048,43.979-42.019,43.881c-24.479-0.105-43.199-19.846-42.641-44.965
	c0.535-24.098,19.582-43.645,42.463-43.58C356.125,244.84,375.202,265.034,375.03,289.438z"/>
<path fill="#262121" d="M333.183,288.522c-1.768-10.93-3.283-20.531-4.881-30.119c-0.86-5.177-2.765-6.441-8.375-4.195
	c-6.979,2.799-11.475,7.943-16.37,12.906c-1.563,1.588-2.239,4.602-0.368,5.59C312.868,277.821,321.809,284.497,333.183,288.522z"/>
<path fill="#F5F4F3" d="M136.119,289.278c-10.076-5.57-19.42-10.717-28.744-15.904c-2.262-1.26-2.574-2.936-1.034-5.117
	c5.063-7.168,11.506-12.476,19.975-15.104c2.175-0.675,4.27-0.788,4.445,2.321C131.391,266.444,136.502,276.698,136.119,289.278z"/>
<path fill="#F5F4F3" d="M333.183,288.522c-11.374-4.025-20.314-10.701-29.994-15.818c-1.871-0.988-1.193-4.002,0.368-5.59
	c4.896-4.963,9.394-10.107,16.37-12.906c5.61-2.247,7.515-0.982,8.375,4.195C329.9,267.991,331.416,277.592,333.183,288.522z"/>
<path fill="#E03B4F" d="M440.599,185.014c0.258-0.355,0.492-0.724,0.742-1.083H409.81c-1.412,0.922-2.551,0.965-3.99,0h-5.945
	H29.465c0.118,0.192,0.229,0.388,0.35,0.58c6.563,10.593,6.428,21.376,3.064,31.573c-5.058,15.349-10.6,30.533-15.229,45.997H73.3
	c7.026-10.123,17.004-17.51,28.378-22.44c9.721-4.212,20.017-7.913,29.501-6.043c24.851-1.724,41.327,11.579,51.995,28.483h103.699
	c4.063-6.369,9.032-12.291,15.224-17.605c15.435-13.247,34.011-13.193,52.31-9.631c16.563,3.223,30.32,12.331,41.271,25.574
	c0.457,0.555,0.875,1.107,1.287,1.662h56.738c-5.219-16.381-11.207-32.505-16.344-48.875
	C434.517,204.152,434.077,194.122,440.599,185.014z"/>
<path fill="#E03B4F" d="M688.909,87.629l-193.453,0.374l-27.746,25.751c-2.773,16.165-7.984,32.133-14.932,48.001
	c-3.816,8.719-7.932,17.33-13.408,24.978c-6.523,9.109-6.084,19.14-3.242,28.192c5.404,17.22,11.775,34.158,17.174,51.421
	c1.943,6.215,3.646,12.471,5.047,18.758h71.541l48.258-73.281h-82.576l-0.008-7.926l23.947-42.986h121.141L688.909,87.629z"/>
</svg>
