<?xml version="1.0" encoding="utf-8"?>
<!-- Generator: Adobe Illustrator 16.0.0, SVG Export Plug-In . SVG Version: 6.00 Build 0)  -->
<!DOCTYPE svg PUBLIC "-//W3C//DTD SVG 1.1//EN" "http://www.w3.org/Graphics/SVG/1.1/DTD/svg11.dtd">
<svg version="1.1" id="Layer_1" xmlns="http://www.w3.org/2000/svg" xmlns:xlink="http://www.w3.org/1999/xlink" x="0px" y="0px"
	 width="1679.833px" height="518.067px" viewBox="209.549 0 1679.833 518.067" enable-background="new 209.549 0 1679.833 518.067"
	 xml:space="preserve">
<path fill="#262121" d="M671.554,12.816c2.924,9.286,8.291,17.445,11.444,26.758c14.005,41.359,7.375,80.708-9.593,119.459
	c-3.816,8.719-7.93,17.33-13.409,24.979c-6.521,9.108-6.082,19.14-3.239,28.191c5.402,17.22,11.772,34.158,17.173,51.421
	c7.732,24.737,11.654,50.092,7.928,75.687c-2.749,18.875-11.965,35.816-22.952,51.514c-1.42-0.334-2.903-0.498-4.244-1.023
	c-21.474-8.405-43.76-10.789-66.225-6.456c-7.286,1.405-10.339,0.354-13.943-5.657c-2.929-4.884-7.654-8.636-13.055-11.466
	c-15.953-8.36-32.438-8.499-49.907-6.125c-11.968,1.625-18.776,7.168-22.681,17.767c-10.918-11.178-25.107-10.669-38.814-9.789
	c-9.362,0.601-19.784,0.437-26.385,9.581c-3.915-12.406-13.299-16.709-25.365-18.453c-22.27-3.22-54.146-0.179-65.173,25.194
	c-1.071,2.463-2.763,3.26-6.321,2.186c-17.5-5.28-34.992-4.339-52.708,0.33c-7.398,1.951-14.21,5.768-21.919,6.503
	c-7.822-13.56-15.755-26.916-20.822-42.008c-7.231-21.54-5.204-42.737-0.934-64.2c4.926-24.77,13.999-48.245,21.867-72.127
	c3.36-10.196,3.496-20.979-3.064-31.573c-18.876-30.473-30.219-63.555-30.022-99.869c0.148-28.307,8.442-54.153,24.249-77.639
	c1.841-2.735,4.142-3.773,7.275-4.351c22.129-4.074,41.629,3.168,59.86,14.438c29.692,18.356,51.924,44.366,71.384,72.765
	c5.376,7.845,10.978,11.112,20.457,10.089c35.31-3.808,70.687-3.786,106.005,0.004c8.684,0.932,13.786-2.227,18.819-9.576
	c19.621-28.653,41.951-54.964,71.898-73.589c13.164-8.187,27.305-13.976,42.987-15.448C654.266-0.808,665.229,0.434,671.554,12.816z
	"/>
<path fill="#F5F4F3" d="M252.165,393.417c7.709-0.735,14.521-4.552,21.919-6.503c17.716-4.669,35.208-5.61,52.708-0.33
	c3.56,1.074,5.25,0.277,6.321-2.186c11.026-25.373,42.903-28.414,65.173-25.194c12.066,1.744,21.45,6.046,25.361,18.451
	c-0.298,3.625,1.522,6.055,4.218,8.256c7.278,5.939,14.577,11.869,21.563,18.145c4.68,4.203,8.748,3.826,13.222-0.059
	c7.093-6.16,14.41-12.067,21.403-18.335c2.251-2.019,5.793-3.626,4.799-7.798c3.903-10.599,10.713-16.142,22.681-17.767
	c17.471-2.373,33.954-2.235,49.907,6.125c5.399,2.83,10.126,6.582,13.055,11.466c3.604,6.012,6.657,7.063,13.943,5.657
	c22.465-4.333,44.751-1.949,66.225,6.456c1.342,0.525,2.824,0.689,4.244,1.023c0.002,0-0.521,0.179-0.521,0.179
	s0.089,0.546,0.091,0.548c-1.113,0.748-2.227,1.495-3.342,2.242c-5.013-0.412-9.957-0.939-14.938-1.98
	c-16.684-3.49-33.53-4.291-50.319-0.57c-3.349,0.742-7.927,0.428-6.56,6.822c1.188,5.555,3.645,5.29,8.119,4.323
	c4.566-0.988,9.436-0.818,14.166-0.763c13.503,0.162,25.962,4.983,38.599,8.968c12.393,7.785,24.881,15.419,35.192,26.035
	c2.248,2.313,4.199,4.612,5.096,8.877c-15.55-10.922-29.897-21.752-47.192-27.424c-15.06-8.04-31.32-9.792-48.036-9.18
	c-2.396,0.09-4.046,0.757-3.712,3.625c0.242,2.082,0.182,4.142,3.209,4.304c14.018,0.75,26.586,6.631,39.479,11.336
	c8.068,6.615,17.32,11.657,24.897,18.961c1.911,1.842,3.794,3.803,2.251,5.9c-2.322,3.16-4.042-0.545-5.7-1.58
	c-9.688-6.064-18.589-13.523-29.979-16.483c-8.771-5.67-18.516-8.258-28.747-9.912c-4.923-0.795-6.433,0.129-7.746,5.047
	c-4.854,18.159-16.088,30.798-33.197,39.259c-9.303,4.602-19.353,4.625-28.646,8.125c-19.963-1.162-38.675-4.972-50.271-23.802
	c-0.552,0.447-1.104,0.896-1.656,1.343l-0.551,0.221l-0.461-0.369c-0.043-0.699-0.415-1.047-1.113-1.045
	c-1.559-10.852-9.577-18.954-12.122-29.661c-1.018,10.633-8.462,18.435-10.312,28.243c-1.761,1.545-3.557,3.049-5.277,4.637
	c-8.648,7.994-16.674,16.687-29.916,17.133c-5.806,0.197-11.541,2.474-17.311,3.806c-3.33-2.291-7.322-2.479-11.066-3.129
	c-26.832-4.658-45.234-18.964-52.73-45.754c-0.942-3.375-2.825-3.457-5.262-2.679c-10.074,3.228-20.938,4.088-30.129,9.98
	c-18.101,6.284-32.064,19.605-47.882,28.073c9.97-14.287,24.216-24.845,39.807-33.808c11.525-5.188,22.946-10.76,36.022-10.752
	c3.528,0.004,5.87-1.524,5.642-5.205c-0.234-3.771-3.023-4.653-6.355-4.485c-15.662,0.797-31.117,2.522-45.336,9.916
	c-13.406,3.952-24.683,11.938-36.253,19.324c-2.969,1.896-5.645,4.088-10.494,4.334c11.335-13.469,24.886-22.346,39.046-30.441
	c17.704-7.5,36.037-11.213,55.328-8.866c3.551,0.433,5.489-0.431,5.724-4.556c0.222-3.895-0.384-5.876-4.847-6.511
	c-22.898-3.252-45.486-2.441-67.76,4.109C254.03,396.679,250.569,397.296,252.165,393.417z"/>
<path fill="#F5F4F3" d="M392.572,404.728c-0.196-2.44-1.528-3.961-3.793-4.18c-2.782-0.27-4.47,1.411-4.605,4.082
	c-0.111,2.213,1.098,4.118,3.505,4.238C390.407,409.005,391.65,406.899,392.572,404.728z"/>
<path fill="#F5F4F3" d="M567.431,398.39c-0.592-2.277-2.133-3.666-4.361-3.498c-2.645,0.195-4.389,1.811-3.816,4.693
	c0.464,2.344,2.313,3.33,4.587,2.975C566.086,402.208,567.435,400.804,567.431,398.39z"/>
<path fill="#F5F4F3" d="M547.815,421.789c-0.627-2.256-2.193-3.649-4.461-3.463c-2.227,0.184-3.896,1.588-3.799,4.104
	c0.102,2.623,1.826,3.599,4.229,3.379C546.14,425.596,547.536,424.238,547.815,421.789z"/>
<path fill="#262121" d="M293.19,436.406c9.191-5.894,20.055-6.754,30.129-9.98c2.437-0.778,4.318-0.697,5.262,2.678
	c7.496,26.793,25.898,41.097,52.73,45.755c3.744,0.649,7.736,0.838,11.064,3.127c1.033,2.239,0.359,4.368-0.439,6.487
	c-23.057-5.541-45.298-13.203-65.906-25.176c-1.729-1.004-3.828-1.375-5.751-2.043c0,0-0.166,0.107-0.168,0.107
	c-0.765-0.563-1.525-1.129-2.288-1.693C310.006,448.745,300.29,444.25,293.19,436.406z"/>
<path fill="#262121" d="M255.832,397.539c22.272-6.551,44.86-7.361,67.76-4.109c4.463,0.635,5.067,2.617,4.847,6.51
	c-0.233,4.127-2.173,4.987-5.724,4.557c-19.291-2.348-37.624,1.365-55.328,8.865C263.545,408.092,259.688,402.817,255.832,397.539z"
	/>
<path fill="#262121" d="M275.088,420.146c14.219-7.394,29.674-9.119,45.336-9.916c3.332-0.168,6.121,0.715,6.355,4.485
	c0.229,3.681-2.112,5.209-5.642,5.205c-13.076-0.008-24.497,5.563-36.022,10.752C281.774,427.162,278.433,423.654,275.088,420.146z"
	/>
<path fill="#CDB8AD" d="M391.937,484.473c0.8-2.119,1.474-4.248,0.439-6.487c5.771-1.33,11.507-3.605,17.313-3.804
	c13.242-0.446,21.268-9.139,29.916-17.133c1.722-1.588,3.518-3.092,5.277-4.637c7.305,3.229,15.098-1.318,22.434,1.418
	c0.698-0.002,1.07,0.346,1.112,1.045c0.112,0.174,0.253,0.504,0.342,0.49c0.235-0.035,0.448-0.217,0.671-0.342
	c0.553-0.447,1.104-0.896,1.656-1.343c11.596,18.83,30.308,22.64,50.271,23.8c-1.182,2.688-4.694,3.653-5.108,6.909
	C474.838,513.219,433.394,507.579,391.937,484.473z"/>
<path fill="#262121" d="M516.26,484.391c0.414-3.256,3.928-4.221,5.108-6.909c9.293-3.498,19.342-3.521,28.646-8.123
	c17.108-8.461,28.345-21.101,33.197-39.259c1.313-4.918,2.823-5.842,7.745-5.047c10.232,1.654,19.978,4.242,28.748,9.912
	c-18.395,14.377-37.751,27.192-59.533,35.954C545.922,476.649,531.54,482,516.26,484.391z"/>
<path fill="#262121" d="M644.199,410.594c-12.637-3.983-25.096-8.806-38.599-8.968c-4.73-0.057-9.6-0.227-14.166,0.762
	c-4.477,0.969-6.932,1.232-8.119-4.322c-1.367-6.395,3.211-6.08,6.559-6.822c16.789-3.721,33.638-2.92,50.32,0.57
	c4.98,1.041,9.926,1.568,14.938,1.98c0.118,0.717,0.237,1.434,0.358,2.149C651.728,400.828,647.963,405.711,644.199,410.594z"/>
<path fill="#262121" d="M628.235,428.166c-12.895-4.705-25.463-10.586-39.479-11.336c-3.027-0.162-2.968-2.222-3.209-4.304
	c-0.334-2.868,1.314-3.535,3.712-3.625c16.716-0.611,32.978,1.141,48.036,9.18C634.271,421.443,631.254,424.805,628.235,428.166z"/>
<path fill="#F5F4F3" d="M655.491,395.944c-0.121-0.716-0.239-1.433-0.358-2.149c1.114-0.747,2.229-1.494,3.342-2.242
	c3.809,1.797,8.607,1.781,11.53,6.446C664.572,399.574,660.274,395.675,655.491,395.944z"/>
<path fill="#CDB8AD" d="M239.476,89.363c2.989-21.966,6.758-43.833,14.173-64.911c1.604-4.562,4.804-6.23,9.589-6.181
	c20.166,0.205,35.131,11.087,48.948,23.95c21.304,19.831,37.148,43.872,51.995,68.653c1.791,2.993,1.838,4.346-1.361,6.194
	c-28.317,16.363-50.419,39.815-72.082,63.725c-2.445,2.697-3.541,2.947-6.646,0.138c-19.574-17.707-32.387-39.425-38.813-64.795
	C243.05,107.353,237.081,99.257,239.476,89.363z"/>
<path fill="#CDB8AD" d="M672.39,82.387c1.013,40.954-13.373,72.472-40.769,98.523c-3.818,3.631-5.153,3.863-9.262-0.615
	c-18.666-20.347-37.384-40.75-60.512-56.39c-13.266-8.968-13.164-9.155-4.33-23.167c15.168-24.059,31.555-47.092,54.313-64.805
	c7.713-6.003,15.855-11.067,25.333-13.923c17.149-5.166,24.134-1.899,28.568,14.885C669.911,52.696,673.687,68.651,672.39,82.387z"
	/>
<path fill="#F0BD3E" d="M350.577,232.595c30.416-2.109,48.296,18.292,58.324,40.26c4.073,8.923,5.963,18.587,9.115,27.801
	c2.771,8.11,0.953,14.084-4.391,20.193c-21.136,24.16-54.996,37.055-82.646,24.568c-21.95-9.914-33.2-27.993-39.903-49.891
	c-0.256-0.836-0.103-1.791-0.298-2.655c-2.022-8.933-5.892-18.314-1.136-26.91c7.013-12.678,18.299-21.63,31.432-27.323
	C330.795,234.426,341.092,230.725,350.577,232.595z"/>
<path fill="#F0BD3E" d="M553.272,350.299c-25.445-1.628-45.971-13.98-61.887-34.752c-1.332-1.739-2.292-3.533-1.906-5.721
	c4.438-25.123,11.748-48.958,32.016-66.353c15.434-13.247,34.009-13.193,52.308-9.631c16.563,3.223,30.321,12.331,41.272,25.574
	c4.441,5.374,6.733,10.733,5.929,17.802c-3.035,26.673-12.484,49.781-36.227,64.616
	C575.647,347.541,565.251,350.202,553.272,350.299z"/>
<path fill="#F06A46" d="M488.851,377.865c0.994,4.171-2.548,5.779-4.799,7.798c-6.993,6.268-14.312,12.175-21.403,18.335
	c-4.474,3.885-8.542,4.262-13.222,0.058c-6.984-6.273-14.283-12.204-21.563-18.144c-2.694-2.201-4.516-4.631-4.218-8.256
	c6.604-9.142,17.025-8.979,26.389-9.579C463.743,367.195,477.933,366.687,488.851,377.865z"/>
<path fill="#262121" d="M467.315,453.831c-7.336-2.736-15.129,1.813-22.434-1.418c1.85-9.81,9.294-17.61,10.312-28.243
	C457.738,434.877,465.758,442.979,467.315,453.831z"/>
<path fill="#262121" d="M469.44,455.024c-0.223,0.125-0.436,0.307-0.671,0.342c-0.089,0.014-0.229-0.316-0.342-0.49
	c0.001,0,0.462,0.369,0.462,0.369L469.44,455.024z"/>
<path fill="#262121" d="M314.741,288.773c-0.131-24.449,18.941-44.806,42.092-44.927c23.316-0.123,42.502,20.08,42.361,44.61
	c-0.14,24.756-18.066,43.716-41.646,44.045C333.792,332.833,314.872,313.505,314.741,288.773z"/>
<path fill="#262121" d="M355.307,288.278c0.384-12.58-4.728-22.835-5.358-33.805c-0.178-3.109-2.271-2.996-4.446-2.321
	c-8.468,2.628-14.912,7.937-19.974,15.105c-1.54,2.182-1.228,3.856,1.034,5.116C335.887,277.561,345.23,282.707,355.307,288.278z"/>
<path fill="#262121" d="M594.218,288.437c-0.176,24.266-19.048,43.98-42.018,43.881c-24.479-0.104-43.199-19.845-42.641-44.964
	c0.535-24.097,19.582-43.645,42.463-43.58C575.313,243.84,594.39,264.033,594.218,288.437z"/>
<path fill="#262121" d="M552.372,287.521c-1.768-10.928-3.284-20.53-4.881-30.119c-0.861-5.177-2.765-6.441-8.375-4.194
	c-6.979,2.798-11.475,7.942-16.37,12.906c-1.563,1.587-2.24,4.601-0.369,5.59C532.056,276.821,540.998,283.497,552.372,287.521z"/>
<path fill="#F5F4F3" d="M355.307,288.278c-10.076-5.571-19.42-10.717-28.744-15.905c-2.262-1.26-2.574-2.935-1.034-5.116
	c5.062-7.168,11.506-12.477,19.974-15.105c2.175-0.675,4.27-0.788,4.446,2.321C350.58,265.443,355.69,275.698,355.307,288.278z"/>
<path fill="#F5F4F3" d="M552.372,287.521c-11.374-4.024-20.315-10.7-29.995-15.817c-1.871-0.989-1.193-4.003,0.369-5.59
	c4.896-4.964,9.393-10.107,16.37-12.906c5.61-2.247,7.514-0.983,8.375,4.194C549.088,266.991,550.604,276.593,552.372,287.521z"/>
<path fill="#E03B4F" d="M659.788,184.013c0.256-0.355,0.492-0.724,0.742-1.083h-31.531c-1.413,0.922-2.551,0.965-3.991,0h-5.945
	H248.653c0.118,0.192,0.229,0.388,0.349,0.58c6.563,10.593,6.428,21.376,3.065,31.573c-5.058,15.349-10.6,30.533-15.229,45.997
	h55.65c7.026-10.123,17.004-17.51,28.378-22.44c9.72-4.212,20.016-7.913,29.501-6.043c24.85-1.724,41.327,11.579,51.995,28.483
	h103.699c4.063-6.369,9.032-12.291,15.224-17.605c15.434-13.247,34.01-13.193,52.309-9.631
	c16.563,3.223,30.321,12.331,41.271,25.574c0.458,0.554,0.876,1.107,1.288,1.662h56.738c-5.219-16.381-11.208-32.505-16.345-48.875
	C653.705,203.152,653.265,193.121,659.788,184.013z"/>
<path fill="#E03B4F" d="M978.097,86.629l-263.453,0.374l-27.745,25.751c-2.773,16.165-7.985,32.133-14.933,48.001
	c-3.816,8.719-7.931,17.33-13.408,24.978c-6.523,9.109-6.083,19.14-3.241,28.192c5.403,17.22,11.774,34.158,17.173,51.421
	c1.943,6.215,3.646,12.47,5.047,18.757h121.541l48.259-73.281H714.76l-0.009-7.926L738.7,159.91h191.14L978.097,86.629z"/>
<polygon fill="#F5F4F3" points="1020.333,351.347 978.097,351.347 1009.521,244.505 1052.007,244.505 "/>
<path fill="#F5F4F3" d="M1054.269,92.663h41.48l-35.698,121.675h2.263l59.078-121.675h43.491l-63.101,124.439
	c3.685,0.337,6.661,1.343,8.925,3.018c2.263,1.677,3.896,3.771,4.901,6.283c1.006,2.516,1.423,5.405,1.258,8.675
	c-0.17,3.268-0.755,6.661-1.761,10.181l-31.424,106.088h-42.485l30.42-102.569c1.006-3.351,1.088-5.906,0.251-7.667
	c-0.841-1.76-3.104-2.64-6.787-2.64h-53.799L1054.269,92.663z"/>
<path fill="#F5F4F3" d="M1267.445,137.914c1.675-5.865-0.671-8.8-7.038-8.8h-74.412l23.128-36.451h82.709
	c9.553,0,16.297,2.852,20.237,8.547c3.936,5.699,4.649,12.82,2.137,21.369l-58.576,201.365c-1.508,5.366-3.731,9.806-6.662,13.324
	c-2.934,3.521-6.245,6.328-9.93,8.422c-3.688,2.099-7.668,3.563-11.941,4.399c-4.272,0.841-8.591,1.257-12.946,1.257h-38.715
	c-4.524,0-8.674-0.754-12.443-2.263c-3.771-1.509-6.831-3.729-9.177-6.662c-2.349-2.931-3.813-6.575-4.398-10.937
	c-0.589-4.355-0.043-9.467,1.634-15.335l53.296-181.004h42.234l-51.033,173.211c-1.344,4.36,0.165,6.536,4.525,6.536h10.307
	c2.177,0,3.811-0.542,4.902-1.634c1.088-1.089,1.968-2.723,2.64-4.902L1267.445,137.914z"/>
<polygon fill="#F5F4F3" points="1428.588,135.147 1364.734,351.347 1322.501,351.347 1386.102,135.147 "/>
<polygon fill="#F5F4F3" points="1349.148,129.114 1364.986,92.663 1478.365,92.663 1467.553,129.114 "/>
<polygon fill="#F5F4F3" points="1573.637,135.147 1521.347,312.382 1543.973,312.382 1532.41,351.347 1448.193,351.347 
	1459.505,312.382 1478.863,312.382 1531.153,135.147 "/>
<polygon fill="#F5F4F3" points="1507.522,129.114 1522.604,92.663 1608.834,92.663 1598.024,129.114 "/>
<polygon fill="#F5F4F3" points="1619.641,351.347 1577.408,351.347 1608.832,244.505 1651.317,244.505 "/>
<path fill="#F5F4F3" d="M1653.58,92.663h41.479l-35.697,121.675h2.263l59.078-121.675h43.491l-63.102,124.439
	c3.686,0.337,6.662,1.343,8.925,3.018c2.264,1.677,3.896,3.771,4.902,6.283c1.005,2.516,1.422,5.405,1.257,8.675
	c-0.169,3.268-0.754,6.661-1.76,10.181l-31.424,106.088h-42.485l30.419-102.569c1.006-3.351,1.088-5.906,0.251-7.667
	c-0.84-1.76-3.103-2.64-6.787-2.64h-53.799L1653.58,92.663z"/>
<polygon fill="#F5F4F3" points="1854.186,135.147 1801.897,312.382 1824.523,312.382 1812.959,351.347 1728.742,351.347 
	1740.053,312.382 1759.412,312.382 1811.702,135.147 "/>
<polygon fill="#F5F4F3" points="1788.071,129.114 1803.154,92.663 1889.382,92.663 1878.573,129.114 "/>
</svg>
