<?xml version="1.0" encoding="utf-8"?>
<!-- Generator: Adobe Illustrator 16.0.0, SVG Export Plug-In . SVG Version: 6.00 Build 0)  -->
<!DOCTYPE svg PUBLIC "-//W3C//DTD SVG 1.1//EN" "http://www.w3.org/Graphics/SVG/1.1/DTD/svg11.dtd">
<svg version="1.1" id="Layer_1" xmlns="http://www.w3.org/2000/svg" xmlns:xlink="http://www.w3.org/1999/xlink" x="0px" y="0px"
	 width="400px" height="400px" viewBox="0 0 400 400" enable-background="new 0 0 400 400" xml:space="preserve">
<path d="M373.896,120.05c-0.47,8.44,1.278,84.797,1.09,134.91l-2.305-0.008c0-24.041-1.827-52.056-0.823-73.686
	c0.039-0.783-0.338-32.821-3.944-77.417c-0.133-1.683-0.203-2.75-9.926-8.44c-36.275-21.259-98.135-60.655-108.602-64.061
	C237.344,27.421,204.61,6.47,203.866,6.114c-1.545-0.719-2.406-0.972-3.646-1.059c-2.548-0.173-3.708,0.285-6.484,2.585
	L79.16,72.277c-4.743,2.972-7.205,3.92-8.843,4.939l-0.792-1.367C114.503,49.414,191.636,3.143,191.636,3.143
	c0.51-0.095,6.17-3.043,6.17-3.043c4.791-1.422,23.435,12.827,32.78,16.928c0,0.071,95.807,51.203,123.475,72.715
	c2.627,2.038,5.026,3.5,7.825,4.773c4.5,2.047,9.541,5.508,9.604,6.591C371.905,108.773,374.327,112.384,373.896,120.05"/>
<path d="M372.681,254.952l2.306,0.008c-0.078,22.018-0.533,38.969-1.718,42.881c-4.028,13.324-8.757,2.458-50.624,36.749
	c-5.902,4.836-6.005,7.997-6.013,10.661c-0.024,5.128,3.363,13.03,3.191,16.855c-0.4,8.679-6.728,4.758-18.064,2.143
	c-25.7-5.936-18.636-5.232-34.771,1.162c-0.792,0.315-48.696,27.217-51.024,27.936c-13.744,4.236-10.036,9.515-22.439,4.805
	c-2.117-0.806-47.958-24.246-48.076-24.316c-3.12-1.833-12.693-3.564-15.547-7.745c-5.629-8.234-20.824-0.363-30.585,0.799
	c-3.74,0.442-9.141,1.635-9.729,1.904c-6.539,2.986-13.587,3.943-14.568,3.003c-1.105-1.051-0.58-5.192,0.988-7.809
	c3.991-6.653,4.791-13.972,6.766-19.827c0.447-1.328,0.33-2.601-0.29-3.186c-1.231-1.162-28.13-18.84-31.713-20.547
	c-3.552-1.699-4.195-3.09-7.668-4.11c-5.731-1.683-8.859-8.646-9.926-9.167c-4.759-2.339-4.21-4.386-8.177-8.172
	c0,0,0.384-6.188,1.38-162.427c0.204-32.781-0.917-36.583,12.325-43.016c3.042-1.47,14.92-8.345,30.82-17.686l0.791,1.367
	c-0.376,0.237-0.705,0.474-1.011,0.743c-5.943,5.176-24.344,15.497-25.136,16.09c-0.964,0.711-1.881,1.28-2.062,1.28
	c-2.587-0.023-9.055,4.371-10.529,7.144c-4.547,8.591-3.167,194.316-2.846,195.138c2.909,7.358,27.174,20.334,36.386,26.555
	c3.089,2.078,10.255,8.717,12.145,10.179c1.529,1.185,3.724,1.944,5.7,1.975c2.14,0.032,1.607-6.653,1.387-9.522
	c-0.251-3.343-2.916-3.864-11.893-11.349c-6.241-5.199-9.981-7.491-11.91-10.258c-2.485-3.563-11.023-4.394-8.835-9.064
	c1.325-2.829,5.409-2.544,10.772-5.216c7.676-3.825,4.641-1.572-3.583-7.753c-5.159-3.872-7.025-3.319-6.578-8.559
	c0.141-1.676,0.275-3.501,0.392-5.477l2.344,0.142c-0.219,4.688,0.612,8.093,6.273,10.677c6.185,2.822,6.232,4.055,12.097,6.172
	c1.019,0.372,1.639,0.814,2.148,1.558c0,0,11.118-2.837,11.345-3.785c0.392-1.684-3.677-11.262-3.293-12.827
	c0.862-3.501,5.802-3.121,8.961-4.876c23.584-13.111,21.192,4.236,19.311-28.489c-0.855-14.937-6.986-62.228-2.995-94.234
	c0.07-0.577-0.055-1.597-0.282-2.316c-0.236-0.743,1.826-14.185,3.52-16.533c0.447-0.624,1.058-1.881,1.364-2.829
	c3.254-9.934,27.104-24.854,40.267-15.284c5.042,3.667-0.901-2.276,21.373-9.649c4.108-1.368,3.865-1.81,7.205-2.553
	c9.024-2.015,4.147-1.106,10.161-0.158c2.25,0.363,2.83,0.601,3.975,1.636c2.297,2.086,4.931,1.818,7.479,5.255
	c4.392,5.912,4.469,7.745,8.875,3.904c6.272-5.476,23.074-8.551,31.635-1.399c1.616,1.344,7.95,6.734,8.681,8.828
	c2.305,6.615,7.456-3.58,25.676,2.742c12.435,4.315,12.074,12.194,12.921,18.406c5.527,40.668-8.436,120.131-8.436,120.131
	c1.67,2.688,7.377,1.81,16.386,6.299c3.175,1.581,5.308,3.375,6.1,5.146c1.426,3.161-4.501,14.976,1.387,16.509
	c4.916,1.28,7.057,6.441,14.059,2.671c2.603-1.407,12.811-5.05,13.523-5.658c1.984-1.676,3.388-63.99,4.141-109.06l2.258,0.048
	c0,3.121,1.458,4.307,1.38,8.084c-0.926,47.338-2.807,102.224-3.058,102.461c-3.607,3.351-19.875,5.769-17.696,10.036
	c0.589,1.154,14.818,7.255,14.058,9.642c0,0-11.509,11.981-15.193,17.078c-6.022,8.314-5.998,8.282-5.622,10.708
	c0.251,1.558-0.11,8.148,3.991,4.631c4.093-3.508,4.734-2.426,9.055-6.487c8.734-8.195,29.98-17.75,34.56-20.998
	C370.87,298.907,372.681,278.897,372.681,254.952 M329.857,301.199c0.919-3.658-21.223-14.85-23.331-15.711
	c-7.864-3.192-4.094,8.188-9.801,21.347c-1.796,4.148-2.556,10.921-4.029,15.813c-1.475,4.893-1.812,6.71-1.921,10.337
	c-0.361,11.586-3.897,6.694-8.045,9.081c-6.271,3.604-7.59,4.221-10.373,4.884c-7.722,1.857-4.633,3.54-2.266,3.651
	c0,0,34.584,11.238,42.079,12.226c3.755,0.497,5.072-2.402,3.144-6.892c-3.606-8.377-4.288-26.315-4.767-28.529
	C308.995,320.214,328.753,305.609,329.857,301.199 M301.688,268.387c1.021-9.404-105.599-35.657-194.68-1.936
	c-29.369,11.118-15.037-2.197-3.002,68.044c2.03,11.854,0.149,9.537,20.298,6.456c45.575-6.963,65.144-8.313,68.123-8.465
	c9.095-0.449,33.337-0.956,36.222-0.758c2.557,0.182,3.341,0.126,5.097-0.364c7.063-1.968,50.993,3.122,51.785,2.98
	c2.924-0.522,3.261-9.887,5.104-15.79c1.623-5.224,0.776-4.592,1.812-7.65C292.907,309.529,300.536,279.135,301.688,268.387
	 M278.819,250.874c1.857-1.896,13.241-55.075,10.497-113.287c-1.23-26.095-30.209-19.765-33.069-17.45
	c-1.459,1.178-2.243,1.368-3.544,0.854c-3.223-1.265-2.07-4.789-3.622-6.852c-7.395-9.799-12.858-10.448-18.417-10.21
	c-16.958,0.719-19.279,8.669-20.902,9.633c-4.876,2.908-7.824-12.51-15.727-14.881c-4.493-1.335-8.099-0.83-14.677,2.071
	c-2.156,0.948-17.358,5.698-19.906,11.143c-3.137,6.686-8.64-4.355-16.23-2.814c-33.626,6.813-38.934,3.501-27.072,136.767
	c0.91,10.14,1.027,10.495,2.148,11.278c2.486,1.722,24.54-6.03,37.375-7.722c3.049-0.402,2.038-1.052,9.886-1.668
	c-4.296,0.332,59.562-6.836,90.06,0.396C258.018,248.701,277.423,252.289,278.819,250.874 M271.314,360.092
	c1.898-0.656,3.521-1.928,3.529-2.774c0-1.406-10.412-4.322-13.352-4.884c-4.682-0.893-0.486-5.714-0.644-10.36l-0.079-2.157
	c-5.707-0.545-31.736,18.199-43.622,21.093c-1.364,0.324-3.739,1.271-5.81,2.292c-5.708,2.845-7.958,2.426-10.522,3.397
	c-1.716,0.656-53.508-22.996-58.816-23.061c-3.685-0.047-3.747,0.064-3.034,5.959c0.957,7.966,1.247,3.928,0.463,6.813
	c-0.761,2.829-1.263,3.304-3.818,3.619c-16.747,2.11,37.954,21.022,58.652,33.762c1.78,1.098,8.993,4.029,11.479,1.004
	C205.662,394.896,267.56,361.388,271.314,360.092 M267.145,346.032c3.324-2.308,17.922-5.405,4.76-8.234
	c-7.229-1.549-5.756,0.909-6.885,4.536C263.083,348.554,265.365,347.266,267.145,346.032 M252.977,339.654
	c5.528,0.079,3.458-4.504,1.498-4.527c0-0.008-16.394,0.103-23.584-0.024c-23.652-0.434-13.72,0.253-35.453,0.807
	c-88.916,2.292-23.089,10.289-1.466,23.479c9.848,6.006,13.25-0.024,24.979-3.343C229.629,353.019,245.035,339.537,252.977,339.654
	 M135.97,353.231c0.933-0.947,0.188-6.021-1.137-7.815c-1.505-2.038-8.655,0.237-11.07,0.467c-9.032,0.853-0.517,0.909,2.822,3.92
	c1.647,1.477,2.494,1.983,3.842,2.291C132.152,352.481,134.324,354.899,135.97,353.231 M131.023,356.765
	c1.09-1.328-0.768-2.213-2.391-2.711c-2.266-0.695-18.346-6.915-18.48-6.915c-1.536-0.023-3.567,1.699-4.908,1.004
	c-1.058-0.545-1.905-2.6-3.277-3.816c-1.372-1.218-1.56-1.763-1.732-5.004c-1.263-23.786-10.679-47.385-11.745-49.621
	c-0.619-1.288-2.627-1.597-3.81-0.593c-1.459,1.232-19.86,3.366-25.857,7.507c-2.117,1.471,14.998,14.447,16.691,16.233
	c4.461,4.694,11.392,6.283,13.18,14.723c-2.462,4.07-1.803,10.338-2.062,13.063c-0.157,1.62-0.612,3.517-1.38,5.777
	c-1.176,3.43-2.148,5.737-2.54,8.685c-0.369,2.853-1.176,3.328-2.329,5.604c-6.131,12.178,10.388,2.75,24.415,1.604
	C102.947,362.455,131.023,356.765,131.023,356.765"/>
<path fill="#FED239" d="M367.914,103.849c3.606,44.596,3.983,76.634,3.944,77.416c-1.004,21.631,0.823,49.646,0.823,73.687
	c0,23.945-1.812,43.956-10.036,49.796c-4.578,3.248-25.825,12.803-34.559,20.998c-4.32,4.063-4.964,2.979-9.057,6.488
	c-4.1,3.517-3.739-3.074-3.99-4.631c-0.377-2.426-0.399-2.396,5.621-10.709c3.686-5.098,15.194-17.078,15.194-17.078
	c0.761-2.386-13.469-8.487-14.057-9.641c-2.181-4.269,14.089-6.687,17.694-10.037c0.251-0.237,2.134-55.122,3.059-102.46
	c0.078-3.778-1.38-4.963-1.38-8.085c0-0.348,0.016-0.711,0.055-1.114c2.187-21.915,1.874-58.331,1.936-58.331
	c-1.065-2.648-140.88-75.172-138.354-74.603c-0.973-0.222-1.827-0.633-2.674-1.281c-0.683-0.521-1.505-1.011-1.804-1.067
	c-5.503-1.019-6.522,0.569-8.169,1.644c-0.737,0.474-1.458,0.862-1.599,0.862c-0.149,0-1.082,0.648-2.07,1.43
	c-4.1,3.248-134.044,70.984-135.377,77.172c0,0,2.235,111.533-0.399,154.817c-0.118,1.976-0.251,3.801-0.392,5.477
	c-0.447,5.239,1.419,4.687,6.577,8.559c8.225,6.18,11.259,3.928,3.583,7.753c-5.362,2.671-9.447,2.387-10.772,5.216
	c-2.187,4.67,6.351,5.5,8.836,9.064c1.929,2.766,5.668,5.058,11.909,10.258c8.977,7.484,11.643,8.006,11.894,11.349
	c0.219,2.869,0.752,9.555-1.388,9.523c-1.976-0.032-4.171-0.791-5.7-1.976c-1.889-1.463-9.055-8.101-12.144-10.18
	c-9.212-6.219-33.478-19.195-36.387-26.554c-0.321-0.821-1.701-186.547,2.846-195.137c1.474-2.774,7.943-7.168,10.53-7.144
	c0.18,0,1.097-0.569,2.062-1.281c0.792-0.592,19.193-10.913,25.135-16.09c0.306-0.268,0.635-0.506,1.012-0.743
	c1.638-1.019,4.1-1.967,8.844-4.939L193.736,7.639c2.776-2.299,3.936-2.758,6.484-2.584c1.239,0.087,2.101,0.34,3.646,1.059
	c0.745,0.356,33.478,21.306,45.521,25.234c10.467,3.406,72.326,42.802,108.602,64.061
	C367.711,101.099,367.781,102.167,367.914,103.849"/>
<path d="M343.163,110.148c-0.063,0,0.251,36.416-1.938,58.331c-0.039,0.403-0.054,0.767-0.054,1.114l-2.258-0.047
	c0.415-24.839,0.635-44.438,0.635-45.781c0.023-8.196-0.377-9.934-2.688-11.744c-10.672-8.377-135.699-73.015-135.433-73.015
	c-1.23-0.45-2.36-0.663-4.163-0.766c-2.376-0.135-2.533-0.111-3.662,0.537C148.35,64.825,57.427,113.665,56.439,115.403
	c-0.713,1.273-0.596,18.541-0.18,19.797c3.575,10.89-0.478,122.645-0.478,123.467c-0.016,4.125-0.581,7.618-0.722,10.597
	l-2.344-0.142c2.634-43.284,0.4-154.817,0.4-154.817c1.333-6.188,131.276-73.924,135.377-77.172c0.987-0.782,1.92-1.43,2.069-1.43
	c0.142,0,0.863-0.387,1.6-0.861c1.646-1.075,2.665-2.664,8.169-1.644c0.298,0.055,1.121,0.545,1.804,1.067
	c0.846,0.648,1.701,1.059,2.673,1.28C202.283,34.976,342.097,107.501,343.163,110.148"/>
<path fill="#FFF1B8" d="M336.859,112.021c2.313,1.81,2.713,3.548,2.689,11.744c0,1.343-0.22,20.942-0.636,45.781
	c-0.753,45.07-2.155,107.384-4.14,109.06c-0.713,0.608-10.921,4.251-13.524,5.658c-7.001,3.771-9.141-1.391-14.057-2.671
	c-5.888-1.533,0.039-13.348-1.388-16.509c-0.792-1.771-2.924-3.564-6.101-5.146c-9.008-4.488-14.716-3.611-16.386-6.299
	c0,0,13.964-79.463,8.436-120.131c-0.846-6.212-0.485-14.091-12.92-18.406c-18.221-6.322-23.371,3.873-25.677-2.742
	c-0.729-2.094-7.063-7.484-8.679-8.828c-8.563-7.152-25.363-4.078-31.635,1.399c-4.406,3.841-4.485,2.007-8.875-3.904
	c-2.549-3.438-5.184-3.169-7.48-5.255c-1.145-1.036-1.725-1.273-3.975-1.636c-6.013-0.949-1.137-1.857-10.161,0.158
	c-3.34,0.743-3.097,1.185-7.205,2.552c-22.274,7.374-16.331,13.317-21.372,9.65c-13.164-9.57-37.014,5.35-40.268,15.284
	c-0.305,0.948-0.917,2.205-1.364,2.829c-1.693,2.347-3.755,15.79-3.52,16.533c0.227,0.719,0.353,1.739,0.282,2.316
	c-3.99,32.006,2.141,79.297,2.995,94.232c1.882,32.727,4.273,15.38-19.31,28.49c-3.16,1.755-8.099,1.375-8.962,4.876
	c-0.384,1.565,3.685,11.144,3.293,12.827c-0.227,0.948-11.344,3.785-11.344,3.785c-0.51-0.743-1.129-1.186-2.149-1.557
	c-5.864-2.118-5.911-3.352-12.097-6.173c-5.661-2.584-6.492-5.989-6.272-10.677c0.141-2.979,0.705-6.472,0.721-10.597
	c0-0.822,4.053-112.577,0.478-123.467c-0.415-1.256-0.533-18.524,0.181-19.797c0.988-1.738,91.91-50.578,137.164-76.626
	c1.129-0.648,1.286-0.672,3.661-0.537c1.804,0.103,2.933,0.316,4.163,0.766C201.161,39.006,326.188,103.644,336.859,112.021"/>
<path fill="#46A8DF" d="M306.525,285.489c2.109,0.86,24.25,12.052,23.332,15.711c-1.104,4.409-20.861,19.014-19.31,26.206
	c0.478,2.213,1.16,20.151,4.767,28.528c1.93,4.489,0.611,7.39-3.144,6.892c-7.495-0.987-42.078-12.226-42.078-12.226
	c-2.368-0.11-5.457-1.794,2.265-3.65c2.784-0.664,4.102-1.281,10.373-4.885c4.147-2.387,7.684,2.505,8.044-9.081
	c0.11-3.627,0.447-5.444,1.921-10.337c1.475-4.892,2.234-11.664,4.03-15.813C302.433,293.676,298.662,282.296,306.525,285.489"/>
<path fill="#59AADF" d="M107.008,266.451c89.08-33.723,195.699-7.469,194.68,1.936c-1.153,10.748-8.781,41.144-9.244,42.519
	c-1.035,3.058-0.188,2.426-1.811,7.649c-1.843,5.903-2.18,15.269-5.104,15.79c-0.792,0.142-44.72-4.948-51.784-2.979
	c-1.756,0.489-2.54,0.545-5.096,0.363c-2.886-0.197-27.127,0.309-36.222,0.758c-2.979,0.151-22.548,1.503-68.124,8.465
	c-20.149,3.082-18.267,5.397-20.298-6.456C91.971,264.254,77.639,277.569,107.008,266.451"/>
<path fill="#5C5B67" d="M289.316,137.586c2.744,58.213-8.64,111.391-10.498,113.289c-1.396,1.414-20.8-2.175-23.199-2.743
	c-30.499-7.231-94.356-0.063-90.06-0.396c-7.849,0.617-6.837,1.266-9.887,1.668c-12.834,1.691-34.889,9.444-37.374,7.722
	c-1.121-0.783-1.239-1.139-2.148-11.278c-11.863-133.266-6.555-129.954,27.072-136.767c7.589-1.541,13.093,9.5,16.229,2.814
	c2.548-5.445,17.75-10.195,19.906-11.143c6.578-2.901,10.185-3.406,14.677-2.071c7.903,2.371,10.851,17.79,15.728,14.881
	c1.622-0.964,3.942-8.914,20.901-9.633c5.559-0.237,11.023,0.411,18.416,10.21c1.553,2.063,0.4,5.588,3.622,6.852
	c1.303,0.514,2.086,0.324,3.544-0.854C259.108,117.822,288.086,111.492,289.316,137.586"/>
<path fill="#FED239" d="M274.844,357.318c-0.008,0.846-1.631,2.117-3.528,2.773c-3.756,1.296-65.654,34.804-65.575,34.701
	c-2.485,3.027-9.699,0.095-11.479-1.003c-20.698-12.74-75.399-31.651-58.652-33.761c2.556-0.316,3.058-0.791,3.818-3.62
	c0.784-2.884,0.494,1.153-0.462-6.813c-0.714-5.896-0.651-6.006,3.034-5.959c5.308,0.063,57.1,23.717,58.817,23.062
	c2.564-0.973,4.814-0.555,10.521-3.399c2.069-1.019,4.445-1.967,5.81-2.291c11.886-2.893,37.915-21.638,43.623-21.093l0.078,2.157
	c0.157,4.646-4.037,9.468,0.643,10.36C264.432,352.995,274.844,355.911,274.844,357.318"/>
<path fill="#00548E" d="M271.903,337.798c13.164,2.829-1.435,5.927-4.759,8.235c-1.78,1.232-4.062,2.521-2.125-3.699
	C266.148,338.707,264.675,336.249,271.903,337.798"/>
<path fill="#5C5B67" d="M254.475,335.127c1.96,0.023,4.03,4.606-1.497,4.527c-7.943-0.117-23.349,13.364-34.027,16.392
	c-11.729,3.318-15.132,9.349-24.979,3.343c-21.623-13.19-87.449-21.188,1.466-23.479c21.733-0.554,11.8-1.24,35.454-0.807
	C238.081,335.229,254.475,335.119,254.475,335.127"/>
<path fill="#00548E" d="M134.833,345.416c1.325,1.794,2.07,6.868,1.137,7.816c-1.647,1.667-3.818-0.751-5.543-1.139
	c-1.349-0.308-2.195-0.813-3.842-2.292c-3.34-3.011-11.854-3.065-2.822-3.92C126.177,345.653,133.328,343.377,134.833,345.416"/>
<path fill="#46A8DF" d="M128.632,354.054c1.623,0.498,3.481,1.383,2.391,2.711c0,0-28.075,5.69-26.225,5.54
	c-14.026,1.146-30.546,10.574-24.415-1.604c1.153-2.276,1.96-2.75,2.329-5.604c0.392-2.947,1.364-5.255,2.54-8.685
	c0.769-2.26,1.223-4.157,1.38-5.777c0.259-2.727-0.4-8.994,2.062-13.063c-1.788-8.441-8.718-10.029-13.179-14.725
	c-1.694-1.786-18.809-14.762-16.692-16.231c5.998-4.142,24.399-6.275,25.857-7.508c1.184-1.003,3.191-0.695,3.81,0.593
	c1.066,2.235,10.483,25.834,11.745,49.622c0.172,3.24,0.36,3.786,1.732,5.003c1.373,1.217,2.219,3.271,3.278,3.816
	c1.34,0.695,3.371-1.027,4.908-1.004C110.286,347.139,126.366,353.359,128.632,354.054"/>
<path d="M226.243,114.303c12.255-2.091,23.411,14.128,13.789,24.762c-7.292,8.048-19.348,7.208-20.228,7.074
	C207.918,144.297,213.771,116.422,226.243,114.303 M226.396,141.557c5.189-1.432,13.344-7.026,12.443-12.286
	c-0.69-4.076-3.248-7.914-6.155-9.241c-0.729-0.334-2.367-0.611-4.224-0.725c-1.838-0.105-5.114-0.869-8.353,5.021
	c-1.127,2.062-3.533,9.957-3.542,11.646C216.565,138.006,220.864,143.094,226.396,141.557"/>
<path fill="#F9D3E6" d="M238.84,129.271c0.899,5.26-7.255,10.854-12.444,12.286c-5.531,1.537-9.83-3.551-9.83-5.585
	c0.009-1.689,2.414-9.584,3.541-11.646c3.239-5.89,6.516-5.126,8.353-5.021c1.857,0.114,3.495,0.391,4.225,0.725
	C235.592,121.357,238.148,125.195,238.84,129.271"/>
<path d="M193.612,124.041c1.104,2.256,1.114,2.305,1.104,6.429c-0.01,8.236,0.039,7.948-1.962,11.177
	c-2.207,3.557-5.766,7.948-15.731,8.097c-2.986,0.04-4.041-0.516-6.002-3.159c-2.642-3.557-5.491-5.127-5.806-6.876
	c-1.045-5.762-1.469-7.988-0.532-9.677c3.282-5.961,0.719-10.074,8.831-13.939C181.232,112.417,191.71,120.167,193.612,124.041
	 M171.958,141.786c14.391,13.015,25.972-16.125,10.783-20.387C168.014,117.265,164.239,134.821,171.958,141.786"/>
<path fill="#F9D3E6" d="M182.741,121.398c15.189,4.262,3.608,33.403-10.783,20.387C164.239,134.822,168.015,117.266,182.741,121.398
	"/>
<path d="M151.599,137.406c1.726,11.345-2.635,21.07-12.862,22.329c-3.801,0.472-4.305,0.241-7.932-3.563
	c-4.994-5.247-2.019-3.599-4.067-6.82c-4.865-7.671-2.093-9.346-1.266-14.972c1.083-7.394,3.791-8.958,8.308-10.281
	C140.711,122.063,150.589,130.799,151.599,137.406 M147.587,149.231c2.304-4.34,0.762-14.075-6.702-18.267
	c-1.606-0.907-4.884-1.258-6.94-0.749c-11.778,2.924-4.351,29.121,5.481,26.512C141.298,156.237,146.32,151.619,147.587,149.231"/>
<path fill="#F9D3E6" d="M140.886,130.965c7.464,4.192,9.006,13.927,6.702,18.267c-1.267,2.387-6.289,7.005-8.162,7.495
	c-9.832,2.61-17.259-23.587-5.48-26.512C136.001,129.706,139.279,130.058,140.886,130.965"/>
<path d="M264.584,132.646c10.101,0.463,14.673,1.953,14.26,14.133c-0.175,5.193-0.34,5.72-2.479,7.988
	c-3.36,3.545-10.174,4.646-14.645,3.424c-6.024-1.638-12.414-17.095,0.981-24.499L264.584,132.646z M266.521,156.118
	c11.285-0.019,11.937-15.586,5.087-18.067c-6.648-2.415-12.341,0.593-13.847,6.479c-0.863,3.415-0.532,4.147,3.664,8.145
	C265.006,156.09,265.053,156.126,266.521,156.118"/>
<path fill="#F9D3E6" d="M271.608,138.051c6.85,2.48,6.198,18.048-5.087,18.067c-1.47,0.009-1.516-0.028-5.097-3.443
	c-4.195-3.999-4.526-4.73-3.664-8.145C259.268,138.643,264.96,135.635,271.608,138.051"/>
<path d="M246.27,180.948c8.166,25.357-3.241,34.173-15.471,41.067c-30.887,17.411-44.334,5.799-52.39,4.651
	c-29.577-4.214-44.642-57.456-5.309-63.839l6.392,0.081c5.452-0.804,8.028,1.679,12.659,5.178
	c21.268,16.038,38.766-5.631,49.898,6.069C243.211,175.375,245.839,179.597,246.27,180.948 M237.98,213.639
	c12.913-7.516,7.807-48.145-14.727-36.729c-0.666,0.336-19.507,4.638-31.071-3.213c-12.867-8.728-23.537-10.327-35.733,2.885
	c-11.713,12.678,0.248,44.616,27.496,47.83C191.544,225.31,199.86,235.833,237.98,213.639"/>
<path fill="#F9D3E6" d="M223.254,176.91c22.533-11.415,27.64,29.213,14.726,36.729c-38.12,22.195-46.435,11.671-54.033,10.771
	c-27.249-3.213-39.21-35.151-27.497-47.83c12.196-13.212,22.866-11.612,35.734-2.885
	C203.747,181.547,222.589,177.246,223.254,176.91"/>
<path fill="#FFFFFF" d="M180.038,263.085c-2.609,0.533-10.688,2.605-10.943,2.673c-3.505,0.938-5.575-0.981-6.912,0.292
	c-1.271,1.212-0.303,3.787,1.693,4.501c0.911,0.325,1.252,0.183,3.473-1.458c1.689-1.247,4.761-1.092,5.372-0.595
	c2.409,1.961,4.525,32.323,3.363,37.775c-0.153,0.715,0.541,8.141,1.353,9.834c0.651,1.354,1.156,1.735,2.324,1.753
	c2.592,0.04,1.636-2.526,1.297-5.459c0-0.001-1.211-7.776-1.211-7.777c-0.971-3.71,0.26-16.088-1.22-21.3
	c-0.391-1.376-0.412-1.937-0.187-4.972c0.381-5.138-1.02-8.627,0.313-9.994c1.842-1.894,7.163,0.659,7.173-2.134
	c0.004-1.046-0.508-2.124-1.338-2.818C183.897,262.828,181.966,262.691,180.038,263.085"/>
<path fill="#FFFFFF" d="M230.911,264.099c-3.71,1.573-0.81,4.934-2.086,9.398c-0.282,0.986-0.268,1.21,0.138,2.1
	c0.396,0.867,0.449,1.552,0.413,5.252c-0.303,31.55-5.595,34.234,0.395,34.32c3.831,0.055,3.84-4.046,2.618-7.613
	c-0.478-1.396-0.203-1.472,0.166-8.497c0.473-8.965,0.803-5.422,4.076-7.84c3.88-2.863,6.682,10.425,6.39,13.46
	c-0.186,1.919-0.032,2.011,0.934,4.328l-0.573,1.748c-2.087,6.37,7.815,7.428,5.646-0.896c-0.568-2.183-0.063-1.811-0.929-4.8
	c-0.744-2.575-2.301-8.638-2.818-11.827c-0.272-1.679-0.609-2.712-1.332-4.087c-1.285-2.443-1.72-2.677,2.08-8.28
	c3.422-5.044,3.191-6.849,4.848-10.256c4.129-8.498-3.935-7.728-3.393-3.585c0.579,4.429-1.96,8.338-2.573,10.006
	c-2.117,5.758-7.023,7.678-7.829,8.986c-5.719,9.281-3.759-14.601-2.803-18.641c0.478-2.021,0.466-2.175-0.214-2.814
	C233.353,263.892,231.9,263.68,230.911,264.099"/>
<path fill="#FFFFFF" d="M193.507,262.427c-1.417,1.649-1.608,4.819-0.432,7.145c1.022,2.018,1.82,28.787-0.376,35.835
	c-0.238,0.767-1.516,6.232,0.927,8.843c6.717,7.18,17.664-34.376,19.267-27.165c1.612,7.259,0.321,23.096,1.449,26.439
	c1.458,4.319,3.503,4.803,4.126-0.701c1.09-9.619-4.163-20.707-0.002-42.895c1.701-9.07-2.466-7.556-3.244-6.65
	c-0.605,0.705-0.599,0.675-1.044,4.675c-0.434,3.891-1.086,5.351-1.549,7.696c-0.15,0.767-12.648,30.897-14.086,28.977
	c0,0-0.092-20.63-1.016-30.902c-0.711-7.901,1.546-6.025-0.091-9.536C196.143,261.416,194.867,260.844,193.507,262.427"/>
<path fill="#FFFFFF" d="M263.01,270.069c-2.724,2.747-3.4,34.509-5.439,38.934c-0.433,0.937-0.516,1.574-0.524,4.015
	c-0.01,2.689,0.03,2.947,0.55,3.532c1.048,1.18,3.552,1.101,4.783-0.151c1.256-1.275-0.381-1.624,0.938-5.34
	c2.133-6.016,1.032-4.676,3.681-9.26c19.38-33.547,11.743-11.689,11.206-8.721c-0.322,1.783-5.207,19.742-6.253,20.396
	c-2.601,1.624-1.858,5.786,1.401,5.371c2.106-0.268,3.698-1.507,3.101-3.577c-0.331-1.148-0.218-1.996,0.483-3.604
	c0.46-1.055,1.244-4.589,1.821-8.19c1.912-11.95,7.686-27.404,7.686-27.404c0.009-2.404-3.357-3.714-5.819-2.264
	c-2.465,1.45-2.982,6.441-5.891,10.554c-12.49,17.658-13.955,33.413-10.935-3.08c0.539-6.521,0.987-3.969,2.388-6.688
	C267.52,271.999,265.144,267.918,263.01,270.069"/>
<path fill="#FFFFFF" d="M145.333,270.032c-7.886,5.419-5.626,4.088-5.832,14.117c-0.047,2.314,0.035,3.149,0.429,4.364
	c1.08,3.322-0.345,3.698,1.319,8.102c0.565,1.498,5.028,20.432,9.821,23.588c2.53,1.666,7.044-0.381,8.851-4.015
	c3.549-7.141,4.729-32.221-0.471-41.301c-3.258-5.688-6.701-5.213-13.03-5.603L145.333,270.032z M153.121,273.902
	c8.487,2.671,6.527,21.934,6.039,33.657c-1.797,5.484-1.843,6.119-3.634,5.847c-3.75-0.572-3.575,0.343-5.281-2.67
	c-0.41-0.724-3.598-10.424-5.968-18.919C142.289,284.694,141.879,270.364,153.121,273.902"/>
<path fill="#FFFFFF" d="M127.347,273.21c-2.433,2.471,0.136,13.347-2.998,18.609c-1.659,2.786-5.392,12.642-7.797,2.671
	c-2.149-8.91-2.959-10.833-2.708-13.167c0.778-7.22-7.698-6.182-4.989-0.05c0.999,2.261,2.251,13.533,4.021,17.345
	c3.586,7.723,1.976,29.294,8.078,29.387c2.759,0.042,2.197-3.609,1.188-5.436c-1.61-2.913,0.149-5.484-1.509-10.384
	c-0.427-1.263-0.559-2.953-1.033-6.416c-0.523-3.822,0.074-2.616,3.868-6.313c2.868-2.796,3.164-0.37,5.696,3.146
	c8.018,11.131,7.191,21.91,11.581,19.604c2.363-1.242,0.056-2.322-0.34-4.714c-0.671-4.056-10.396-19.575-11.149-20.617
	c-2.147-2.971-2.226-3.292-1.409-5.724c0.817-2.437,0.763-10.756,1.331-13.703c0.349-1.813,0.318-3.77-0.067-4.26
	C128.734,272.707,127.83,272.719,127.347,273.21"/>
<rect fill="none" width="400" height="400"/>
</svg>
