<?xml version="1.0" encoding="utf-8"?>
<!-- Generator: Adobe Illustrator 16.0.0, SVG Export Plug-In . SVG Version: 6.00 Build 0)  -->
<!DOCTYPE svg PUBLIC "-//W3C//DTD SVG 1.1//EN" "http://www.w3.org/Graphics/SVG/1.1/DTD/svg11.dtd">
<svg version="1.1" id="Layer_1" xmlns="http://www.w3.org/2000/svg" xmlns:xlink="http://www.w3.org/1999/xlink" x="0px" y="0px"
	 width="1200px" height="400px" viewBox="0 0 1200 400" enable-background="new 0 0 1200 400" xml:space="preserve">
<path d="M373.896,120.05c-0.47,8.44,1.278,84.797,1.09,134.91l-2.305-0.008c0-24.041-1.827-52.056-0.823-73.686
	c0.039-0.783-0.338-32.821-3.944-77.417c-0.133-1.683-0.204-2.75-9.926-8.44c-36.276-21.259-98.135-60.655-108.602-64.061
	c-12.043-3.927-44.776-24.878-45.52-25.234c-1.545-0.719-2.407-0.972-3.646-1.059c-2.548-0.173-3.708,0.285-6.484,2.585
	L79.16,72.277c-4.743,2.972-7.205,3.92-8.843,4.939l-0.792-1.367C114.503,49.414,191.636,3.143,191.636,3.143
	c0.51-0.095,6.17-3.043,6.17-3.043c4.791-1.422,23.435,12.827,32.78,16.928c0,0.071,95.807,51.203,123.475,72.715
	c2.627,2.038,5.026,3.5,7.825,4.773c4.5,2.047,9.541,5.508,9.604,6.591C371.905,108.773,374.328,112.384,373.896,120.05"/>
<path d="M372.681,254.952l2.305,0.008c-0.078,22.018-0.533,38.969-1.717,42.881c-4.029,13.324-8.757,2.458-50.624,36.749
	c-5.903,4.836-6.005,7.997-6.013,10.661c-0.024,5.128,3.363,13.03,3.191,16.855c-0.4,8.679-6.727,4.758-18.064,2.143
	c-25.7-5.936-18.636-5.232-34.771,1.162c-0.792,0.315-48.696,27.217-51.024,27.936c-13.744,4.236-10.036,9.515-22.439,4.805
	c-2.117-0.806-47.958-24.246-48.076-24.316c-3.12-1.833-12.693-3.564-15.547-7.745c-5.629-8.234-20.824-0.363-30.585,0.799
	c-3.74,0.442-9.141,1.635-9.729,1.904c-6.539,2.986-13.587,3.943-14.568,3.003c-1.105-1.051-0.58-5.192,0.988-7.809
	c3.991-6.653,4.791-13.972,6.766-19.827c0.447-1.328,0.33-2.601-0.29-3.186c-1.231-1.162-28.13-18.84-31.713-20.547
	c-3.552-1.699-4.195-3.09-7.668-4.11c-5.731-1.683-8.859-8.646-9.926-9.167c-4.759-2.339-4.21-4.386-8.177-8.172
	c0,0,0.384-6.188,1.38-162.427c0.204-32.781-0.917-36.583,12.325-43.016c3.042-1.47,14.92-8.345,30.82-17.686l0.791,1.367
	c-0.376,0.237-0.705,0.474-1.011,0.743c-5.943,5.176-24.344,15.497-25.136,16.09c-0.964,0.711-1.881,1.28-2.062,1.28
	c-2.587-0.023-9.055,4.371-10.529,7.144c-4.547,8.591-3.167,194.316-2.846,195.138c2.909,7.358,27.174,20.334,36.386,26.555
	c3.089,2.078,10.255,8.717,12.145,10.179c1.529,1.185,3.724,1.944,5.7,1.975c2.14,0.032,1.607-6.653,1.387-9.522
	c-0.251-3.343-2.916-3.864-11.893-11.349c-6.241-5.199-9.981-7.491-11.91-10.258c-2.485-3.563-11.023-4.394-8.835-9.064
	c1.325-2.829,5.409-2.544,10.772-5.216c7.676-3.825,4.641-1.572-3.583-7.753c-5.159-3.872-7.025-3.319-6.578-8.559
	c0.141-1.676,0.275-3.501,0.392-5.477l2.344,0.142c-0.219,4.688,0.612,8.093,6.273,10.677c6.185,2.822,6.232,4.055,12.097,6.172
	c1.019,0.372,1.639,0.814,2.148,1.558c0,0,11.118-2.837,11.345-3.785c0.392-1.684-3.677-11.262-3.293-12.827
	c0.862-3.501,5.802-3.121,8.961-4.876c23.584-13.111,21.192,4.236,19.311-28.489c-0.855-14.937-6.986-62.228-2.995-94.234
	c0.07-0.577-0.055-1.597-0.282-2.316c-0.236-0.743,1.826-14.185,3.52-16.533c0.447-0.624,1.058-1.881,1.364-2.829
	c3.254-9.934,27.104-24.854,40.267-15.284c5.042,3.667-0.901-2.276,21.373-9.649c4.108-1.368,3.865-1.81,7.205-2.553
	c9.024-2.015,4.147-1.106,10.161-0.158c2.25,0.363,2.83,0.601,3.975,1.636c2.297,2.086,4.931,1.818,7.479,5.255
	c4.391,5.912,4.469,7.745,8.875,3.904c6.272-5.476,23.074-8.551,31.635-1.399c1.616,1.344,7.95,6.734,8.68,8.828
	c2.305,6.615,7.456-3.58,25.676,2.742c12.435,4.315,12.074,12.194,12.921,18.406c5.527,40.668-8.436,120.131-8.436,120.131
	c1.67,2.688,7.377,1.81,16.386,6.299c3.175,1.581,5.308,3.375,6.1,5.146c1.426,3.161-4.501,14.976,1.387,16.509
	c4.916,1.28,7.056,6.441,14.058,2.671c2.603-1.407,12.811-5.05,13.524-5.658c1.984-1.676,3.387-63.99,4.14-109.06l2.258,0.048
	c0,3.121,1.458,4.307,1.38,8.084c-0.926,47.338-2.807,102.224-3.058,102.461c-3.607,3.351-19.875,5.769-17.696,10.036
	c0.589,1.154,14.818,7.255,14.058,9.642c0,0-11.509,11.981-15.194,17.078c-6.022,8.314-5.998,8.282-5.622,10.708
	c0.251,1.558-0.11,8.148,3.991,4.631c4.093-3.508,4.735-2.426,9.055-6.487c8.734-8.195,29.981-17.75,34.56-20.998
	C370.87,298.907,372.681,278.897,372.681,254.952 M329.858,301.199c0.918-3.658-21.223-14.85-23.332-15.711
	c-7.864-3.192-4.093,8.188-9.8,21.347c-1.796,4.148-2.556,10.921-4.03,15.813c-1.474,4.893-1.811,6.71-1.921,10.337
	c-0.361,11.586-3.897,6.694-8.044,9.081c-6.272,3.604-7.59,4.221-10.373,4.884c-7.722,1.857-4.633,3.54-2.266,3.651
	c0,0,34.584,11.238,42.079,12.226c3.755,0.497,5.072-2.402,3.144-6.892c-3.607-8.377-4.289-26.315-4.767-28.529
	C308.995,320.214,328.753,305.609,329.858,301.199 M301.688,268.387c1.02-9.404-105.599-35.657-194.68-1.936
	c-29.369,11.118-15.037-2.197-3.002,68.044c2.03,11.854,0.149,9.537,20.298,6.456c45.575-6.963,65.144-8.313,68.123-8.465
	c9.095-0.449,33.337-0.956,36.222-0.758c2.556,0.182,3.34,0.126,5.096-0.364c7.064-1.968,50.993,3.122,51.785,2.98
	c2.924-0.522,3.261-9.887,5.104-15.79c1.623-5.224,0.776-4.592,1.811-7.65C292.907,309.529,300.536,279.135,301.688,268.387
	 M278.819,250.874c1.858-1.896,13.242-55.075,10.498-113.287c-1.231-26.095-30.209-19.765-33.07-17.45
	c-1.459,1.178-2.243,1.368-3.544,0.854c-3.222-1.265-2.07-4.789-3.622-6.852c-7.394-9.799-12.858-10.448-18.417-10.21
	c-16.958,0.719-19.279,8.669-20.902,9.633c-4.876,2.908-7.824-12.51-15.727-14.881c-4.493-1.335-8.099-0.83-14.677,2.071
	c-2.156,0.948-17.358,5.698-19.906,11.143c-3.137,6.686-8.64-4.355-16.23-2.814c-33.626,6.813-38.934,3.501-27.072,136.767
	c0.91,10.14,1.027,10.495,2.148,11.278c2.486,1.722,24.54-6.03,37.375-7.722c3.049-0.402,2.038-1.052,9.886-1.668
	c-4.296,0.332,59.562-6.836,90.06,0.396C258.018,248.701,277.423,252.289,278.819,250.874 M271.315,360.092
	c1.898-0.656,3.521-1.928,3.529-2.774c0-1.406-10.412-4.322-13.352-4.884c-4.681-0.893-0.486-5.714-0.643-10.36l-0.079-2.157
	c-5.707-0.545-31.737,18.199-43.622,21.093c-1.365,0.324-3.74,1.271-5.81,2.292c-5.708,2.845-7.958,2.426-10.522,3.397
	c-1.717,0.656-53.509-22.996-58.817-23.061c-3.685-0.047-3.747,0.064-3.034,5.959c0.957,7.966,1.247,3.928,0.463,6.813
	c-0.761,2.829-1.263,3.304-3.818,3.619c-16.747,2.11,37.954,21.022,58.652,33.762c1.78,1.098,8.993,4.029,11.478,1.004
	C205.662,394.896,267.56,361.388,271.315,360.092 M267.145,346.032c3.324-2.308,17.922-5.405,4.759-8.234
	c-7.229-1.549-5.755,0.909-6.884,4.536C263.083,348.554,265.365,347.266,267.145,346.032 M252.977,339.654
	c5.528,0.079,3.458-4.504,1.498-4.527c0-0.008-16.394,0.103-23.584-0.024c-23.653-0.434-13.72,0.253-35.453,0.807
	c-88.916,2.292-23.089,10.289-1.466,23.479c9.847,6.006,13.25-0.024,24.979-3.343C229.629,353.019,245.035,339.537,252.977,339.654
	 M135.97,353.231c0.933-0.947,0.188-6.021-1.137-7.815c-1.505-2.038-8.655,0.237-11.07,0.467c-9.032,0.853-0.517,0.909,2.822,3.92
	c1.647,1.477,2.494,1.983,3.842,2.291C132.152,352.481,134.324,354.899,135.97,353.231 M131.023,356.765
	c1.09-1.328-0.768-2.213-2.391-2.711c-2.266-0.695-18.346-6.915-18.48-6.915c-1.536-0.023-3.567,1.699-4.908,1.004
	c-1.058-0.545-1.905-2.6-3.277-3.816c-1.372-1.218-1.56-1.763-1.732-5.004c-1.263-23.786-10.679-47.385-11.745-49.621
	c-0.619-1.288-2.627-1.597-3.81-0.593c-1.459,1.232-19.86,3.366-25.857,7.507c-2.117,1.471,14.998,14.447,16.691,16.233
	c4.461,4.694,11.392,6.283,13.18,14.723c-2.462,4.07-1.803,10.338-2.062,13.063c-0.157,1.62-0.612,3.517-1.38,5.777
	c-1.176,3.43-2.148,5.737-2.54,8.685c-0.369,2.853-1.176,3.328-2.329,5.604c-6.131,12.178,10.388,2.75,24.415,1.604
	C102.947,362.455,131.023,356.765,131.023,356.765"/>
<path fill="#FED239" d="M367.915,103.849c3.606,44.596,3.983,76.634,3.944,77.416c-1.004,21.631,0.823,49.646,0.823,73.687
	c0,23.945-1.811,43.956-10.036,49.796c-4.578,3.248-25.825,12.803-34.559,20.998c-4.32,4.063-4.963,2.979-9.056,6.488
	c-4.1,3.517-3.739-3.074-3.99-4.631c-0.377-2.426-0.4-2.396,5.621-10.709c3.685-5.098,15.194-17.078,15.194-17.078
	c0.761-2.386-13.469-8.487-14.057-9.641c-2.18-4.269,14.089-6.687,17.695-10.037c0.251-0.237,2.133-55.122,3.058-102.46
	c0.078-3.778-1.38-4.963-1.38-8.085c0-0.348,0.016-0.711,0.055-1.114c2.187-21.915,1.874-58.331,1.936-58.331
	c-1.066-2.648-140.88-75.172-138.355-74.603c-0.973-0.222-1.827-0.633-2.674-1.281c-0.682-0.521-1.505-1.011-1.803-1.067
	c-5.504-1.019-6.523,0.569-8.17,1.644c-0.737,0.474-1.458,0.862-1.599,0.862c-0.149,0-1.082,0.648-2.07,1.43
	c-4.1,3.248-134.044,70.984-135.377,77.172c0,0,2.235,111.533-0.399,154.817c-0.118,1.976-0.251,3.801-0.392,5.477
	c-0.447,5.239,1.419,4.687,6.577,8.559c8.225,6.18,11.259,3.928,3.583,7.753c-5.362,2.671-9.447,2.387-10.772,5.216
	c-2.187,4.67,6.351,5.5,8.836,9.064c1.929,2.766,5.668,5.058,11.909,10.258c8.977,7.484,11.643,8.006,11.894,11.349
	c0.219,2.869,0.752,9.555-1.388,9.523c-1.976-0.032-4.171-0.791-5.7-1.976c-1.889-1.463-9.055-8.101-12.144-10.18
	c-9.212-6.219-33.478-19.195-36.387-26.554c-0.321-0.821-1.701-186.547,2.846-195.137c1.474-2.774,7.943-7.168,10.53-7.144
	c0.18,0,1.097-0.569,2.062-1.281c0.792-0.592,19.193-10.913,25.135-16.09c0.306-0.268,0.635-0.506,1.012-0.743
	c1.638-1.019,4.1-1.967,8.844-4.939L193.736,7.639c2.776-2.299,3.936-2.758,6.484-2.584c1.239,0.087,2.101,0.34,3.646,1.059
	c0.745,0.356,33.477,21.306,45.52,25.234c10.467,3.406,72.326,42.802,108.602,64.061
	C367.71,101.099,367.781,102.167,367.915,103.849"/>
<path d="M343.163,110.148c-0.063,0,0.251,36.416-1.937,58.331c-0.039,0.403-0.054,0.767-0.054,1.114l-2.258-0.047
	c0.415-24.839,0.635-44.438,0.635-45.781c0.023-8.196-0.377-9.934-2.689-11.744c-10.671-8.377-135.699-73.015-135.432-73.015
	c-1.231-0.45-2.36-0.663-4.163-0.766c-2.376-0.135-2.533-0.111-3.662,0.537C148.35,64.825,57.427,113.665,56.439,115.403
	c-0.713,1.273-0.596,18.541-0.18,19.797c3.575,10.89-0.478,122.645-0.478,123.467c-0.016,4.125-0.581,7.618-0.722,10.597
	l-2.344-0.142c2.634-43.284,0.4-154.817,0.4-154.817c1.333-6.188,131.276-73.924,135.377-77.172c0.987-0.782,1.92-1.43,2.069-1.43
	c0.142,0,0.863-0.387,1.6-0.861c1.646-1.075,2.665-2.664,8.169-1.644c0.298,0.055,1.121,0.545,1.804,1.067
	c0.846,0.648,1.701,1.059,2.673,1.28C202.283,34.976,342.097,107.501,343.163,110.148"/>
<path fill="#FFF1B8" d="M336.859,112.021c2.313,1.81,2.713,3.548,2.689,11.744c0,1.343-0.219,20.942-0.635,45.781
	c-0.753,45.07-2.156,107.384-4.14,109.06c-0.713,0.608-10.921,4.251-13.524,5.658c-7.001,3.771-9.141-1.391-14.057-2.671
	c-5.888-1.533,0.039-13.348-1.388-16.509c-0.792-1.771-2.924-3.564-6.1-5.146c-9.008-4.488-14.716-3.611-16.386-6.299
	c0,0,13.964-79.463,8.436-120.131c-0.846-6.212-0.486-14.091-12.92-18.406c-18.221-6.322-23.372,3.873-25.677-2.742
	c-0.729-2.094-7.064-7.484-8.679-8.828c-8.562-7.152-25.363-4.078-31.635,1.399c-4.406,3.841-4.485,2.007-8.875-3.904
	c-2.548-3.438-5.183-3.169-7.48-5.255c-1.145-1.036-1.725-1.273-3.975-1.636c-6.013-0.949-1.137-1.857-10.161,0.158
	c-3.34,0.743-3.097,1.185-7.205,2.552c-22.274,7.374-16.331,13.317-21.372,9.65c-13.164-9.57-37.014,5.35-40.268,15.284
	c-0.305,0.948-0.917,2.205-1.364,2.829c-1.693,2.347-3.755,15.79-3.52,16.533c0.227,0.719,0.353,1.739,0.282,2.316
	c-3.99,32.006,2.141,79.297,2.995,94.232c1.882,32.727,4.273,15.38-19.31,28.49c-3.16,1.755-8.099,1.375-8.962,4.876
	c-0.384,1.565,3.685,11.144,3.293,12.827c-0.227,0.948-11.344,3.785-11.344,3.785c-0.51-0.743-1.129-1.186-2.149-1.557
	c-5.864-2.118-5.911-3.352-12.097-6.173c-5.661-2.584-6.492-5.989-6.272-10.677c0.141-2.979,0.705-6.472,0.721-10.597
	c0-0.822,4.053-112.577,0.478-123.467c-0.415-1.256-0.533-18.524,0.181-19.797c0.988-1.738,91.91-50.578,137.164-76.626
	c1.129-0.648,1.286-0.672,3.661-0.537c1.804,0.103,2.933,0.316,4.163,0.766C201.162,39.006,326.188,103.644,336.859,112.021"/>
<path fill="#46A8DF" d="M306.526,285.489c2.109,0.86,24.25,12.052,23.332,15.711c-1.105,4.409-20.862,19.014-19.31,26.206
	c0.478,2.213,1.16,20.151,4.767,28.528c1.929,4.489,0.611,7.39-3.144,6.892c-7.495-0.987-42.078-12.226-42.078-12.226
	c-2.368-0.11-5.457-1.794,2.265-3.65c2.784-0.664,4.101-1.281,10.373-4.885c4.147-2.387,7.683,2.505,8.044-9.081
	c0.11-3.627,0.447-5.444,1.921-10.337c1.474-4.892,2.234-11.664,4.03-15.813C302.433,293.676,298.662,282.296,306.526,285.489"/>
<path fill="#59AADF" d="M107.008,266.451c89.08-33.723,195.699-7.469,194.68,1.936c-1.153,10.748-8.781,41.144-9.244,42.519
	c-1.035,3.058-0.188,2.426-1.811,7.649c-1.842,5.903-2.179,15.269-5.104,15.79c-0.792,0.142-44.72-4.948-51.784-2.979
	c-1.756,0.489-2.54,0.545-5.096,0.363c-2.886-0.197-27.127,0.309-36.222,0.758c-2.979,0.151-22.548,1.503-68.124,8.465
	c-20.149,3.082-18.267,5.397-20.298-6.456C91.971,264.254,77.639,277.569,107.008,266.451"/>
<path fill="#5C5B67" d="M289.316,137.586c2.744,58.213-8.64,111.391-10.498,113.289c-1.396,1.414-20.8-2.175-23.199-2.743
	c-30.499-7.231-94.357-0.063-90.06-0.396c-7.849,0.617-6.837,1.266-9.887,1.668c-12.834,1.691-34.889,9.444-37.374,7.722
	c-1.121-0.783-1.239-1.139-2.148-11.278c-11.863-133.266-6.555-129.954,27.072-136.767c7.589-1.541,13.093,9.5,16.229,2.814
	c2.548-5.445,17.75-10.195,19.906-11.143c6.578-2.901,10.185-3.406,14.677-2.071c7.903,2.371,10.851,17.79,15.728,14.881
	c1.622-0.964,3.943-8.914,20.902-9.633c5.558-0.237,11.023,0.411,18.416,10.21c1.552,2.063,0.4,5.588,3.622,6.852
	c1.302,0.514,2.086,0.324,3.544-0.854C259.108,117.822,288.085,111.492,289.316,137.586"/>
<path fill="#FED239" d="M274.844,357.318c-0.008,0.846-1.631,2.117-3.528,2.773c-3.756,1.296-65.654,34.804-65.575,34.701
	c-2.486,3.027-9.699,0.095-11.479-1.003c-20.698-12.74-75.399-31.651-58.652-33.761c2.556-0.316,3.058-0.791,3.818-3.62
	c0.784-2.884,0.494,1.153-0.462-6.813c-0.714-5.896-0.651-6.006,3.034-5.959c5.308,0.063,57.1,23.717,58.817,23.062
	c2.564-0.973,4.814-0.555,10.521-3.399c2.07-1.019,4.446-1.967,5.81-2.291c11.886-2.893,37.915-21.638,43.623-21.093l0.078,2.157
	c0.157,4.646-4.037,9.468,0.643,10.36C264.432,352.995,274.844,355.911,274.844,357.318"/>
<path fill="#00548E" d="M271.903,337.798c13.164,2.829-1.435,5.927-4.759,8.235c-1.78,1.232-4.061,2.521-2.125-3.699
	C266.148,338.707,264.674,336.249,271.903,337.798"/>
<path fill="#5C5B67" d="M254.475,335.127c1.96,0.023,4.03,4.606-1.497,4.527c-7.943-0.117-23.349,13.364-34.027,16.392
	c-11.729,3.318-15.132,9.349-24.979,3.343c-21.623-13.19-87.449-21.188,1.466-23.479c21.733-0.554,11.8-1.24,35.454-0.807
	C238.081,335.229,254.475,335.119,254.475,335.127"/>
<path fill="#00548E" d="M134.833,345.416c1.325,1.794,2.07,6.868,1.137,7.816c-1.647,1.667-3.818-0.751-5.543-1.139
	c-1.349-0.308-2.195-0.813-3.842-2.292c-3.34-3.011-11.854-3.065-2.822-3.92C126.177,345.653,133.328,343.377,134.833,345.416"/>
<path fill="#46A8DF" d="M128.632,354.054c1.623,0.498,3.481,1.383,2.391,2.711c0,0-28.075,5.69-26.225,5.54
	c-14.026,1.146-30.546,10.574-24.415-1.604c1.153-2.276,1.96-2.75,2.329-5.604c0.392-2.947,1.364-5.255,2.54-8.685
	c0.769-2.26,1.223-4.157,1.38-5.777c0.259-2.727-0.4-8.994,2.062-13.063c-1.788-8.441-8.718-10.029-13.179-14.725
	c-1.694-1.786-18.809-14.762-16.692-16.231c5.998-4.142,24.399-6.275,25.857-7.508c1.184-1.003,3.191-0.695,3.81,0.593
	c1.066,2.235,10.483,25.834,11.745,49.622c0.172,3.24,0.36,3.786,1.732,5.003c1.373,1.217,2.219,3.271,3.278,3.816
	c1.34,0.695,3.371-1.027,4.908-1.004C110.286,347.139,126.366,353.359,128.632,354.054"/>
<path d="M226.243,114.303c12.255-2.091,23.411,14.128,13.789,24.762c-7.292,8.048-19.348,7.208-20.228,7.074
	C207.918,144.297,213.771,116.422,226.243,114.303 M226.395,141.557c5.19-1.432,13.344-7.026,12.444-12.286
	c-0.691-4.076-3.248-7.914-6.156-9.241c-0.729-0.334-2.367-0.611-4.223-0.725c-1.838-0.105-5.114-0.869-8.353,5.021
	c-1.127,2.062-3.533,9.957-3.542,11.646C216.565,138.006,220.864,143.094,226.395,141.557"/>
<path fill="#F9D3E6" d="M238.839,129.271c0.9,5.26-7.254,10.854-12.444,12.286c-5.531,1.537-9.83-3.551-9.83-5.585
	c0.009-1.689,2.414-9.584,3.541-11.646c3.239-5.89,6.516-5.126,8.353-5.021c1.857,0.114,3.495,0.391,4.224,0.725
	C235.591,121.357,238.148,125.195,238.839,129.271"/>
<path d="M193.612,124.041c1.104,2.256,1.114,2.305,1.104,6.429c-0.01,8.236,0.039,7.948-1.962,11.177
	c-2.207,3.557-5.766,7.948-15.731,8.097c-2.986,0.04-4.041-0.516-6.002-3.159c-2.642-3.557-5.491-5.127-5.806-6.876
	c-1.045-5.762-1.469-7.988-0.532-9.677c3.282-5.961,0.719-10.074,8.831-13.939C181.232,112.417,191.71,120.167,193.612,124.041
	 M171.958,141.786c14.391,13.015,25.972-16.125,10.783-20.387C168.014,117.265,164.239,134.821,171.958,141.786"/>
<path fill="#F9D3E6" d="M182.741,121.398c15.189,4.262,3.608,33.403-10.783,20.387C164.239,134.822,168.015,117.266,182.741,121.398
	"/>
<path d="M151.599,137.406c1.726,11.345-2.635,21.07-12.862,22.329c-3.801,0.472-4.305,0.241-7.932-3.563
	c-4.994-5.247-2.019-3.599-4.067-6.82c-4.865-7.671-2.093-9.346-1.266-14.972c1.083-7.394,3.791-8.958,8.308-10.281
	C140.711,122.063,150.589,130.799,151.599,137.406 M147.587,149.231c2.304-4.34,0.762-14.075-6.702-18.267
	c-1.606-0.907-4.884-1.258-6.94-0.749c-11.778,2.924-4.351,29.121,5.481,26.512C141.298,156.237,146.32,151.619,147.587,149.231"/>
<path fill="#F9D3E6" d="M140.886,130.965c7.464,4.192,9.006,13.927,6.702,18.267c-1.267,2.387-6.289,7.005-8.162,7.495
	c-9.832,2.61-17.259-23.587-5.48-26.512C136.001,129.706,139.279,130.058,140.886,130.965"/>
<path d="M264.584,132.646c10.1,0.463,14.673,1.953,14.259,14.133c-0.174,5.193-0.339,5.72-2.479,7.988
	c-3.36,3.545-10.174,4.646-14.645,3.424c-6.024-1.638-12.414-17.095,0.982-24.499L264.584,132.646z M266.521,156.118
	c11.285-0.019,11.937-15.586,5.087-18.067c-6.648-2.415-12.341,0.593-13.847,6.479c-0.863,3.415-0.532,4.147,3.664,8.145
	C265.006,156.09,265.052,156.126,266.521,156.118"/>
<path fill="#F9D3E6" d="M271.608,138.051c6.85,2.48,6.198,18.048-5.087,18.067c-1.469,0.009-1.515-0.028-5.096-3.443
	c-4.196-3.999-4.527-4.73-3.664-8.145C259.267,138.643,264.96,135.635,271.608,138.051"/>
<path d="M246.269,180.948c8.166,25.357-3.241,34.173-15.47,41.067c-30.887,17.411-44.335,5.799-52.39,4.651
	c-29.577-4.214-44.642-57.456-5.309-63.839l6.392,0.081c5.452-0.804,8.028,1.679,12.659,5.178
	c21.268,16.038,38.766-5.631,49.899,6.069C243.211,175.375,245.839,179.597,246.269,180.948 M237.98,213.639
	c12.913-7.516,7.807-48.145-14.726-36.729c-0.666,0.336-19.507,4.638-31.071-3.213c-12.867-8.728-23.537-10.327-35.733,2.885
	c-11.713,12.678,0.248,44.616,27.496,47.83C191.544,225.31,199.86,235.833,237.98,213.639"/>
<path fill="#F9D3E6" d="M223.254,176.91c22.533-11.415,27.64,29.213,14.726,36.729c-38.12,22.195-46.435,11.671-54.033,10.771
	c-27.249-3.213-39.21-35.151-27.497-47.83c12.196-13.212,22.866-11.612,35.734-2.885
	C203.747,181.547,222.589,177.246,223.254,176.91"/>
<path fill="#FFFFFF" d="M1091.061,156.104c0,14.387,14.199,23.144,26.619,19.865c15.059-3.975,25.049,7.17,25.459,28.063
	c0.452,22.971-17.586,42.038-46.465,42.789c-39.34,1.024-53.532-42.189-56.908-82.23c-0.291-3.445-3.271-5.177-6.506-5.462
	c-2.141-0.189-4.693,1.007-7.43,2.981c-8.308,6.004-29.819,29.644-34.996,33.177c-2.032,1.386-4.22,1.386-4.955-2.869
	c-1.828-10.57,0.068-37.119-17.294-35.768c-14.239,1.107-27.522,17.888-28.372,19.782c-1.753,3.9,0.128,7.742,2.875,8.589
	c3.113,0.963,5.268-2.261,9.106,2.507c4.771,5.93,8.598,23.623,14.42,31.562c2.438,3.319,7.411,7.335,17.198,1.205
	c14.625-9.162,23.205-21.618,28.576-26.363c2.13-1.882,3.291-0.381,4.214,1.863c8.195,19.896,28.401,65.602,77.66,65.602
	c47.017,0,78.588-33.568,78.659-73.123c0.061-35.174-26.979-60.584-59.381-56.543
	C1103.755,132.951,1091.061,141.543,1091.061,156.104"/>
<path fill="#FFFFFF" d="M946.353,106.988c-27.102,7.341-60.858,59.257-62.324,61.119c-1.463,1.859-2.059,1.131-2.277-1.225
	c-0.839-8.988,3.774-41.664-13.608-44.606c-14.52-2.458-29.54,16.05-30.389,19.674c-2.486,10.636,7.545,8.155,9.408,9.119
	c9.674,5.004,10.963,46.901,17.887,59.426c1.827,3.304,4.147,4.698,7.14,2.373c5.889-4.582,10.097-19.44,13.767-24.636
	c1.059-1.498,1.621-1.092,2.417,0.668c16.511,36.534,52.858,97.74,91.222,85.031c21.554-7.142,31.847-34.722,7.127-31.513
	c-40.549,5.269-83.309-50.952-90.147-65.831c-0.501-1.09-0.54-1.883,0.043-2.932c1.039-1.862,22.335-26.222,39.979-34.02
	c13.714-6.062,24.938,10.5,34.53,5.268C984.322,137.705,971.18,100.262,946.353,106.988"/>
<path fill="#FFFFFF" d="M758.705,163.139c-7.142,1.108-26.301,14.279-25.336,17.959c1.271,4.844,5.9,1.117,10.942,6.522
	c8.525,9.142,12.567,61.66,28.651,50.603c5.249-3.61,23.054-23.741,28.614-25.733c10.733-3.845,14.364,31.833,32.938,45.806
	c2.461,1.854,6.854,6.189,17.44,0.706c1.862-0.965,6.273-4.811,2.401-7.022c-2.496-1.428-5.569,1.749-9.703-2.757
	c-5.681-6.187-4.805-59.314-7.176-69.438c-6.287-26.861-47.301,15.028-52.83,23.585c-6.33,9.794-2.961-8.68-10.077-27.654
	C772.486,170.157,765.747,162.046,758.705,163.139"/>
<path fill="#FFFFFF" d="M757.081,115.113c-40.492,4.852-95.485,32.094-102.234,48.305c-1.512,3.629-0.85,10.185,3.939,12.174
	c2.127,0.884,2.991,0.35,8.139-5.05c6.503-6.816,28.528-18.22,27.978-13.459c-0.806,7.01-9.698,81.458,3.284,88.491
	c4.86,2.634,18.604-7.446,20.944-13.155c2.801-6.829-9.865-82.339-8.599-82.901c14.259-6.344,31.105-8.298,46.823-4.927
	c11.035,2.367,14.18,6.467,17.008,7.44c6.698,2.306,9.496-10.263,5.207-25.865C775.49,111.323,765.488,114.104,757.081,115.113"/>
<path fill="#FFFFFF" d="M601.556,152.559c-24.319,0-50.411,19.791-50.411,42.076c0,7.243,1.375,12.881,8.755,14.262
	c1.572,0.296,1.715,0.159,1.483,1.578c-3.39,20.694,14.614,37.179,39.484,37.179c27.527,0,48.353-17.881,48.353-50.473
	C649.219,170.421,628.143,152.559,601.556,152.559 M628.083,203.506c-4.93,13.513-20.614,17.964-30.458,13.642
	c-5.074-2.229-10.511-7.648-10.511-13.212c0-7.443,3.099-7.686,1.296-11.249c-2.389-4.717-5.518-4.337-7.285-3.886
	c-1.557,0.396-2.066-0.613-2.069-2.371c-0.025-10.667,12.459-19.148,24.877-19.148C621.198,167.282,636.035,181.711,628.083,203.506
	"/>
<path fill="#FFFFFF" d="M604.654,78.889c-57.592,1.299-124.735,129.709-123.33,129.184c-0.408,0.151-0.806-0.229-0.756-0.725
	c0.773-7.751,6.427-52.478,4.168-74.849c-3.477-34.449-27.636-27.702-53.039-7.384c-3.978,3.18-6.114,7.856-2.558,11.367
	c3.026,2.989,9.226,0.246,12.962,8.198c5.896,12.551,7.239,123.275,7.52,125.979c0.804,7.746,18.216,9.854,21.052-1.7
	c3.323-13.54,15.868-48.975,22.446-56.851c0.543-0.652,1.616-0.861,2.123-0.141c52.13,74.098,121.416,130.294,191.992,130.294
	c61.688,0,89.698-27.901,109.124-39.646c12.723-7.69-23.166,4.206-25.011-3.103c-0.993-3.933,13.022-13.274,0.85-18.109
	c-16.087-6.39,21.704-20.298,9.241-21.252c-45.052-3.452-51.993,20.076-107.823,20.076c-65.881,0-127.728-29.011-169.319-82.642
	c-0.568-0.732-0.512-1.504-0.274-1.922c29.25-51.25,66.001-79.082,81.662-82.672c1.252-0.288,2.294,0.4,3.403,1.517
	c1.133,1.142,1.284,1.609,1.962,6.064c1.779,11.679,16.305,17.057,25.352,14.527c11.493-3.215,19.963-9.618,22.577-20.865
	C643.691,93.95,628.434,78.353,604.654,78.889"/>
<path fill-rule="evenodd" clip-rule="evenodd" fill="#FED239" d="M779.227,260.297c8.064,0.001,31.382,6.974,37.482,11.985
	s20.484,25.713,19.611,27.893c-0.872,2.179-1.742,4.575-5.229,2.833c-3.487-1.743-16.563-6.104-22.664-4.142
	c-6.102,1.962-15.907,7.628-21.354,11.114c-5.447,3.487-28.11-0.871-27.893-20.047S771.162,260.295,779.227,260.297"/>
<g>
	<path fill="#FFFFFF" d="M1159.418,145.85c-11.135-11.99-27.936-18.321-44.226-17.001c-8.819,0.715-17.62,5.343-22.69,12.79
		c-2.896,4.253-4.423,9.331-4.486,14.454l3.045,0.011l-3.045,0.012c0.151,12.048,10.08,21.846,21.383,23.124
		c5.269,0.595,10.25-1.752,15.483-1.261c5.867,0.55,10.296,5.166,12.474,10.27c4.45,10.426,4.271,23.676-1.013,34.09
		c-9.786,19.286-34.849,26.846-54.64,20.358l-0.096-0.042c-3.201-1.442-6.076-3.646-8.606-5.322
		c-5.831-3.904-10.55-9.319-14.259-15.264c-10.145-16.263-14.883-37.324-16.607-57.791c-0.393-4.001-3.754-6.698-7.363-7.415
		c-6.243-1.242-13.004,5.211-13.004,5.211c-3.765,3.405-7.262,7.089-10.751,10.769c-2.45,2.591-5.185,5.462-5.185,5.462
		c-5.063,4.961-9.874,10.203-15.367,14.563c-1.297,1.03-1.611,1.272-1.66,1.266c0.064,0.163,0.086,0.234-0.28-0.553
		c-0.708-1.528-0.665-3.334-0.813-5.059c-0.191-2.298-0.142-3.893-0.759-6.908c-0.111-0.539-0.225-1.078-0.342-1.617
		c-0.787-8.194-1.958-16.954-7.672-22.111c-2.151-1.942-4.982-3.093-7.882-3.32c-11.627-0.91-23.764,8.545-31.655,19.07
		c-2.703,3.605-2.772,8.692,0.156,11.748c1.617,1.687,4.032,2.311,6.333,1.972c2.896-0.451,4.335,1.077,5.541,3.119
		c4.33,7.329,6.085,15.8,9.599,23.473c5.041,11.003,12.7,13.384,19.85,10.592c7.972-3.113,14.499-8.976,20.655-14.877l0.066-0.07
		c4.215-4.46,7.772-9.321,12.045-13.535c0.152-0.148,0.164-0.826,0.636,0.089c0.055,0.107,0.108,0.217,0.159,0.327
		c2.641,5.722,5.202,11.344,8.224,16.795c1.685,3.04,3.917,6.667,3.917,6.667c4.055,7.885,8.683,15.776,14.838,22.126
		c0.425,0.439,0.854,0.872,1.287,1.301c16.736,16.566,40.309,23.545,62.973,21.065c1.443-0.158,2.694-0.173,4.28-0.643
		c0.259-0.075,0.517-0.153,0.774-0.232c0.854-0.26,1.701-0.533,2.546-0.819c4.605-1.557,10.274-4.21,10.274-4.21
		c15.353-4.934,29.2-14.563,38.69-27.505l0.05-0.083c2.992-5.064,5.381-10.464,7.078-16.09c0.643-2.132,1.308-4.818,1.308-4.818
		C1177.802,188.653,1174.92,162.542,1159.418,145.85z M1168.557,209.709l-0.042,0.103c-1.192,2.898-2.569,5.714-4.134,8.42
		c-2.841,4.912-6.764,9.684-6.764,9.684c-8.474,12.516-21.139,22.008-35.345,27.173l-0.134,0.025
		c-4.244,0.826-8.549,1.308-12.864,1.458c-4.182,0.136-8.4,1.033-12.639,1.175c-29.792,0.99-52.289-16.969-67.422-39.455
		c-3.792-6.875-6.948-14.081-9.784-21.403c-0.57-1.479-1.025-3.016-1.942-4.283c-1.867-2.577-5.145-1.845-7.124-0.106
		c-7.872,6.916-14.144,15.092-22.046,21.427c-4.199,3.368-8.416,6.968-13.384,7.161c-3.136,0.122-5.639-2.082-7.255-4.643
		c-4.831-7.652-6.723-16.439-10.354-24.504c-1.739-3.861-4.578-9.244-9.438-9.381c-0.74-0.011-1.621,0.13-2.573,0.286
		c-2.976,0.489-4.795-2.891-2.889-5.796c3.144-4.793,7.498-8.798,12.14-12.213c5.152-3.792,12.364-8.022,18.937-5.544
		c4.933,1.86,6.937,7.746,8.058,13.202c0.708,3.446,1.148,8.005,1.148,8.005c-0.03,1.679-0.032,4.063-0.032,4.063
		c0.433,4.51,0.111,8.944,2.469,11.987c1.916,2.472,5.315,1.809,7.538,0.056c6.07-4.788,11.084-10.797,16.475-16.355l0.666-0.628
		l0.688-0.645c4.518-4.24,9.017-8.504,13.813-12.41c2.222-1.795,4.394-3.8,7.032-4.702c2.003-0.685,5.666,0.106,6.021,2.826
		c1.455,12.43,2.547,25.188,6.244,37.354c4.671,15.372,12.438,30.688,25.197,39.675c4.037,2.844,11.695,4.825,11.695,4.825
		c11.601,3.909,25.035,3.08,36.771-1.514c16.772-6.565,28.268-22.497,28.675-39.627c0.2-8.476-1.448-20.014-8.595-27.246
		c-3.176-3.213-7.389-5.214-11.814-5.634c-3.547-0.337-7.037,0.748-10.475,1.217c-10.849,1.478-20.901-7.379-20.969-17.651
		c-0.072-10.954,9.081-19.992,19.369-21.616c16.973-2.678,33.393,4.497,44.154,16.72
		C1171.693,167.171,1174.376,189.835,1168.557,209.709z"/>
	<path fill="#FFFFFF" d="M988.805,194.135c-0.002-0.006-0.004-0.012-0.007-0.018C988.795,194.128,988.798,194.134,988.805,194.135z"
		/>
	<path fill="#FFFFFF" d="M988.72,193.911c-0.009-0.01,0.04,0.109,0.078,0.207C988.813,194.055,988.947,193.866,988.72,193.911z"/>
	<path fill="#FFFFFF" d="M992.638,240.24c-0.459-0.073-0.921-0.134-1.383-0.178c-0.534-0.05-1.069-0.086-1.605-0.104
		c-0.836-0.029-1.072-0.047-2.623,0.019c-2.527,0.127-5.05,0.089-7.556-0.207c-0.384-0.047-0.396-0.108-1.552-0.214
		c-14.723-1.421-28.45-9.861-40.218-19.697c-4.943-4.133-9.934-9.051-9.934-9.051c-3.25-2.318-6.428-4.745-9.522-7.275l-0.128-0.149
		c-7.313-8.603-14.445-17.488-18.976-27.585c-0.133-0.302-0.25-0.437-0.345-0.488c0.063-0.08,0.139-0.19,0.231-0.348
		c-0.28,0.496,0.888-1.055,0.888-1.055c3.375-4.994,7.211-9.681,11.163-14.242l0.03-0.027c3.453-3.118,7.011-6.123,10.728-8.924
		c6.324-4.764,13.011-10.197,20.355-10.38c9.042-0.225,15.807,8.055,24.783,8.104c6.515,0.037,11.062-6.018,11.781-11.917
		c1.869-15.326-10.996-33.203-26.688-33.318c-2.197-0.001-4.382,0.3-6.503,0.844l0.788,2.942l-0.807-2.937
		c-4.322,1.232-8.354,3.309-12.133,5.746c-15.246,9.829-27.872,24.645-39.426,39.612c0,0-2.195,2.972-3.769,5.174
		c-2.872,4.023-6.149,8.88-6.149,8.88c-0.085-5.591,0.08-11.16-0.284-16.723c-0.491-7.509-1.488-15.953-6.817-21.833
		c-2.935-3.24-8.683-4.65-8.683-4.65c-3.39-0.85-6.934-0.695-10.297,0.116l-0.114,0.04c-8.002,2.834-14.717,8.637-19.874,15.409
		c-2.463,3.235-4.574,7.885-3.096,12.263c0.832,2.468,2.909,4.185,5.293,4.915c2.287,0.699,5.942,0.703,5.942,0.703
		c2.842,1.81,3.945,6.014,5.085,9.584c1.197,3.754,2.331,8.758,2.331,8.758c1.353,6.741,2.406,13.533,3.654,20.298l0.074,0.314
		c0.764,3.239,1.563,6.473,2.523,9.661c1.46,4.839,2.839,10.317,6.752,12.814c2.813,1.794,6.052,0.253,8.088-1.737
		c5.391-5.269,7.589-12.538,10.767-19.184c0.109-0.224,0.218-0.449,0.328-0.672l0.963-2.805c0.368-0.642,0.244-0.148,0.244-0.148
		c9.829,21.79,21.55,42.879,37.106,60.805c12.525,14.434,28.655,27.277,46.479,26.97c9.7-0.168,18.526-4.819,24.882-11.713
		c5.289-5.735,9.754-13.998,6.396-20.556C1000.221,242.982,996.414,240.851,992.638,240.24z M999.168,251.983
		c-0.046,0.244-0.1,0.485-0.16,0.727c-2.467,9.826-12.063,16.604-21.972,18.969c-0.186,0.043-0.372,0.086-0.559,0.126
		c0,0-1.355,0.363-2.299,0.551c-14.902,2.962-26.733-5.029-36.401-13.589c-21.168-18.744-34.854-43.426-46.604-68.534
		c-0.731-1.572-1.191-3.319-2.485-4.328c-1.686-1.314-3.486-0.064-4.44,1.334c-1.082,1.585-2.323,3.193-3.121,4.992
		c-2.714,6.115-4.614,12.506-8.637,17.471c-1.292,1.593-3.454,2.323-3.454,2.323c-0.123-0.034-0.156-0.051-0.175-0.056
		c-0.013-0.004-0.011-0.003-0.015-0.003c0.003-0.002-0.015-0.013-0.139-0.067c-1.18-0.508-1.865-1.937-2.502-3.218
		c0,0-0.748-1.923-1.145-3.273c-1.705-5.796-2.888-14.296-2.888-14.296c-1.723-8.489-3.249-17.134-5.194-25.617
		c-1.376-6.002-2.834-13.049-7.763-16.447c-2.051-1.414-4.499-0.935-6.816-1.496c-2.524-0.612-2.678-3.461-1.41-5.672
		c2.93-5.113,7.492-9.263,12.435-12.545c2.818-1.872,6.563-3.324,6.563-3.324c2.479-1.184,5.444-2.106,7.697-1.769
		c4.467,0.668,7.447,4.311,9.023,8.295c2.963,7.493,2.817,15.59,2.689,23.502c-0.143,6.011-1.683,11.61,1.05,14.636
		c2.185,2.42,4.647,0.315,5.905-1.413c3.981-5.53,8.154-11.03,12.236-16.416c7.434-9.755,15.304-19.176,24.193-27.526l0.214-0.195
		c2.789-2.523,5.672-4.944,8.708-7.165c7.198-5.267,15.135-9.79,23.174-8.621c8.711,1.268,15.142,9.102,17.763,17.554
		c1.443,4.659,2.485,10.982-1.407,14.821c-4.24,4.181-12.653-0.946-12.653-0.946c-7.371-3.299-15.351-6.066-22.218-3.097
		c-10.097,4.365-17.974,11.83-25.644,19.371c-2.987,2.954-6.527,5.474-9.725,8.316c-2.778,2.468-5.494,5.164-5.494,5.164
		c-2.114,2.709-2.347,5.217-1.162,7.567c4.778,9.477,11.842,17.653,19.032,25.571c1.173,1.286,2.312,2.573,2.312,2.573
		c2.247,3.41,4.593,6.756,7.06,10.011l0.236,0.228c14.637,13.929,33.502,27.804,54.497,29.212l0.204,0.003
		c2.798,0.017,5.596-0.198,8.355-0.672c3.383-0.602,8.139-1.707,11.519,0.672l0.021,0.019
		C999.29,247.316,999.577,249.812,999.168,251.983z"/>
	<path fill="#FFFFFF" d="M850.52,249.339c-2.385,0.168-4.023-1.978-4.023-1.978c-1.185-2.15-1.503-6.244-1.503-6.244
		c-1.863-7.947-2.693-16.156-3.575-24.32l0.013-0.183c0.295-4.206,0.993-8.397,0.924-12.334c-0.067-3.678-0.172-7.354-0.293-11.028
		c-0.245-7.405,0.334-15.853-4.487-21.727c-1.544-1.881-3.018-3.653-6.609-3.758c-3.371-0.057-7.257,1.915-7.257,1.915
		c-7.604,1.689-14.599,6.413-21.063,11.31c0,0-1.744,1.984-2.923,3.408c-1.844,2.227-4.03,5.106-4.049,5.12
		c-4.401,3.886-8.802,7.815-12.31,12.515c-1.76,2.396-0.985,0.049-1.129-1.261c-0.217-2.024-0.491-5.049-0.491-5.049
		c-1.127-8.479-2.274-17.905-6.873-25.368c-3.312-5.372-9.669-11.159-16.617-10.23l0.452,3.012l-0.583-2.989
		c-6.526,1.212-13.547,6.26-19.799,11.048c-3.042,2.329-7.358,4.863-7.781,9.211c-0.259,2.664,1.74,5.176,4.221,6.031
		c1.858,0.641,2.788,0.623,3.93,0.914c5.19,1.32,6.491,6.628,8.091,11.071c0.655,1.815,1.463,4.314,1.463,4.314
		c1.99,6.418,3.75,12.917,5.898,19.287c0.469,1.382,0.886,2.695,0.886,2.695c0.28,1.753,0.596,3.498,0.993,5.229
		c2.033,4.792,4.554,9.81,9.036,11.91c5.233,2.452,11.001-2.24,12.17-3.359c6.6-6.322,12.568-13.38,19.476-19.342
		c0.268-0.228,0.534-0.456,0.802-0.681c0,0,0.773-0.765,1.35-1.305c0.309-0.289,0.621-0.574,0.937-0.854
		c0.279-0.245,0.561-0.485,0.848-0.718c1.231-1.001,2.367-3.122,5.179,0.029c3.266,3.661,5.163,9.334,7.294,14.436
		c0,0,0.506,0.667,1.105,1.453l0.407,0.92c4.627,10.396,9.974,20.868,19.006,27.991c5.982,4.717,12.69,3.833,18.354,1.153
		c2.587-1.225,7.391-5.007,6.023-8.885C856.963,249.732,853.469,249.104,850.52,249.339z M853.214,254.863
		c-2.209,3.204-7.589,5.238-12.207,4.382c-2.123-0.394-3.849-1.735-5.557-3.033c-7.888-6.101-12.514-15.305-16.78-24.415
		c-0.372-0.799-0.89-1.967-0.89-1.967c-0.761-3.873-3.266-8.044-5.534-11.893c-1.671-2.835-4.643-6.028-6.341-6.942
		c-3.865-2.081-8.092,0.837-11.748,3.626l-0.099,0.09c-2.582,2.332-5.043,4.791-7.486,7.267c-0.679,0.688-1.621,1.635-1.621,1.635
		c-3.598,3.324-7.133,6.717-10.852,9.904c-1.392,1.183-3.235,3.565-5.668,3.268c-4.027-0.493-6.936-9.219-6.936-9.219
		c-0.954-1.449-1.848-2.935-2.706-4.442l-0.009-0.024c-1.955-5.954-3.479-12.036-5.107-18.083
		c-1.713-6.332-2.894-13.247-6.729-18.46c-2.28-3.099-5.932-4.634-9.662-5.332c-2.015-0.398-0.823-0.766-0.357-1.321
		c4.03-4.82,9.74-8.255,15.507-11.181c2.506-1.271,5.01-2.629,7.691-2.664c1.2-0.005,2.186,0.301,3.2,0.777
		c7.78,3.651,10.146,12.399,11.896,20.262c1.021,4.592,1.779,9.965,1.779,9.965c0.745,4.108,0.387,8.023,3.106,10.334
		c2.257,1.919,4.347-0.335,5.569-2.215c2.203-3.437,4.764-6.699,7.499-9.807c1.762-2.002,3.951-4.317,3.969-4.329
		c3.952-2.733,9.138-5.834,9.138-5.834c5.603-4.992,11.468-9.881,18.396-11.992l0.067,0.003c1.93,0.074,3.979,0.382,5.291,1.7
		c1.538,0.491,2.56,1.882,3.189,3.293c3.556,7.971,2.419,17.47,2.995,26.339l0.025,0.152c0.314,1.88,0.628,3.758,0.945,5.635
		c0.57,3.375,1.135,7.156,1.135,7.156c-0.006,8.278-0.069,16.582,0.953,24.753l0.029,0.129c0.33,1.479,0.699,2.952,1.189,4.388
		c1.711,5.01,5.87,7.652,10.237,7.348C854.661,253.801,853.541,254.389,853.214,254.863z"/>
	<path fill="#FFFFFF" d="M656.929,177.854c6.375,3.151,9.54-3.83,13.93-7.65c3.335-2.903,12.975-8.024,12.975-8.024
		c2.902-1.704,5.829-3.478,9.031-4.239c-0.879,6.345-1.672,12.702-2.363,19.07l0.236,2.126c-1.437,16.348-2.705,32.732-1.146,48.926
		c0.617,6.396,1.073,13.818,5.812,18.366c3.543,3.403,8.427,1.506,12.04-0.216c4.414-2.105,8.574-5.061,11.86-8.741
		c0,0,1.22-1.625,1.854-2.88c2.164-4.286,0.695-9.969-0.005-15.189c-0.742-5.546-1.735-11.859-1.735-11.859
		c-0.04-4.574-0.124-9.148-0.223-13.723l-0.004-0.026c-1.5-13.276-3.354-26.474-4.688-39.81c0,0-0.727-2.01-1.196-3.419l0.94-0.609
		c3.753-1.3,7.603-2.308,11.509-2.999c2.62-0.463,5.265-0.789,7.919-0.975c2.47-0.173,5.439-0.212,5.439-0.212
		c3.862-0.702,7.771-1.114,11.691-1.206l0.106,0.016c7.35,1.222,14.251,3.753,20.269,7.944c5.092,3.513,9.465,0.78,11.198-2.992
		c2.132-4.637,1.975-9.717,1.463-14.613c-0.693-6.651-1.919-13.825-6.405-18.814c-5.219-5.804-13.09-4.851-20.337-4.056
		c-0.13,0.014-0.371,0.17-0.388,0.041c-5.761,0.798-11.584,1.943-17.406,3.36c-1.51,0.367-3.019,1.625-4.526,2.027
		c-7.325,1.955-14.62,3.438-21.759,6.044l-0.28,0.112c-6.793,2.725-13.466,5.728-19.987,9.019
		c-9.387,4.764-17.877,10.852-26.869,15.545c-1.263,0.659-3.075,1.699-3.075,1.699c-3.489,2.839-6.858,5.911-9.256,9.68
		C649.886,165.342,650.74,174.794,656.929,177.854z M666.027,154.991c2.092-1.699,3.513-4,6.049-5.676
		c12.218-8.076,25.727-14.192,39.653-19.248c1.771-0.638,3.517-1.249,3.517-1.249c6.636-2.506,13.361-4.742,20.184-6.618
		c0.502-0.139,1.007-0.274,1.511-0.409c0.167-0.044,0.334-0.089,0.502-0.133c6.484-1.71,13.245-2.815,20.007-3.523l-0.368-3.022
		l0.37,3.022l0.811-0.115c4.036-0.596,8.41-1.755,12.348-0.159c6.815,2.762,8.603,13.732,8.517,22.794
		c-0.029,2.998,0.087,7.055-2.271,9.13c-0.752,0.661,1.313,2.325-3.585-0.523c-6.768-3.975-14.424-6.155-22.207-6.798
		c-4.033-1.076-8.151-1.822-12.306-2.236l-0.228,0.017c-8.565,0.669-16.976,2.659-24.93,5.99c-0.287,0.123-0.575,0.245-0.862,0.37
		c0,0-2.695,0.457-2.866,0.495c-1.486,0.336-2.039,2.464-2.039,2.464c-0.46,2.516-0.672,5.584-0.672,5.584
		c1.562,11.941,3.568,23.828,5.383,35.742c0.896,5.915,2.485,11.656,3.803,17.464l0.026,0.41c0.33,5.065,0.636,10.138,0.692,15.221
		c0.027,2.518,0.263,5.054-0.406,7.295c-0.088,0.289,0,0.002-0.064,0.148c0,0-1.035,1.523-1.761,2.298c0,0-1.401,1.702-2.474,2.752
		c-3.026,2.966-7.503,5.654-7.503,5.654c-1.905,0.95-4.198,2.251-5.736,1.246c-2.398-1.566-3.225-5.431-3.923-8.771
		c-3.711-17.763-1.934-36.747-0.542-55.24l0.601-2.356c0.396-6.291,0.882-12.585,1.458-18.858c0.278-3.032-1.342-4.007-3.29-4.074
		c-2.927-0.054-5.768,1.093-8.539,2.171c-1.516,0.589-3.68,1.552-3.68,1.552c-3.961,2.13-7.797,4.5-11.392,7.204
		c-2.181,1.658-2.766,2.035-4.036,3.186c-1.817,1.663-3.473,3.929-5.549,4.948c0,0-1.604-0.893-2.225-1.934
		c-0.273-0.458-0.477-0.958-0.624-1.47C655.53,163.294,661.397,158.788,666.027,154.991z M711.568,151.86
		c0.291-0.221,0.583-0.443,0.876-0.662C712.699,151.01,711.568,151.86,711.568,151.86z"/>
	<path fill="#FFFFFF" d="M634,160.792c-1.147-0.998-2.938-2.35-2.938-2.35c-8.538-5.639-18.818-8.569-29.179-8.919
		c-0.106-0.003-0.213-0.006-0.319-0.009l-0.009,3.045l-0.009-3.045c-5.506,0.162-13.231,2.086-13.231,2.086
		c-5.002,1.266-9.848,3.17-14.375,5.652l-0.174,0.105c-4.813,2.966-9.169,6.574-13.024,10.72c-0.732,0.788-1.44,1.598-2.122,2.431
		c-1.581,1.93-3.018,3.98-4.267,6.141c-0.958,1.658-4.411,7.328-4.411,7.328c-1.872,5.715-2.652,12.221-0.959,18.005
		c2.105,7.188,9.81,9.135,9.81,9.135c-0.665,4.404,1.004,10.651,1.25,11.803c1.058,4.786,3.245,9.18,6.315,12.998
		c0.11,0.139,1.281,0.803,1.281,0.803c12.979,13.925,34.669,16.615,54.448,9.962l0.121-0.06c2.542-1.262,4.986-2.73,7.269-4.424
		c3.739-2.772,11.956-10.424,14.014-12.648l0.101-0.145c4.978-7.21,7.819-15.689,8.94-24.375l-0.024-0.099
		c-0.63-2.528-1.243-16.575-2.539-21.962l-0.058-0.102C648.624,180.583,638.909,165.06,634,160.792z M647.174,196.281
		c0.114,1.412-1.256,6.504-2.034,7.965c-0.288,3.461-0.857,6.902-1.788,10.249c-1.414,5.086-5.034,11.782-5.034,11.782
		c-1.076,2.522-7.948,10.229-10.082,11.433c-3.844,2.171-8.456,3.623-8.456,3.623c-2.431,1.14-4.957,2.064-7.539,2.779l-0.093,0.02
		c-13.773,2.918-30.849,0.672-41.356-9.803c-0.123-0.125-0.245-0.248-0.365-0.374l-0.485-1.149c-2.646-2.826-4.731-6.162-5.98-9.813
		c-1.122-3.278-0.434-7.948-0.434-7.948c-0.021-3.016,1.176-6.653-1.103-7.938c-2.041-1.151-3.191-0.778-3.191-0.778
		c-2.634-0.953-4.303-3.441-4.721-6.195c-0.026-0.185-0.406-2.91-0.421-4.861c-0.03-3.88,1.558-9.624,1.558-9.624
		c0.092-1.643,0.429-3.525,0.429-3.525c3.444-6.916,9.025-12.635,15.447-16.837c2.29-1.499,5.303-3.072,5.303-3.072
		c4.137-2.357,8.563-4.23,13.158-5.445c0,0,1.389-0.303,2.407-0.479c2.554-0.446,4.211-0.645,10.342-0.707
		c4.77-0.025,9.515,2.103,14.271,1.847c11.778-0.633,30.217,23.754,27.682,27.303C645.701,187.521,647.096,195.302,647.174,196.281z
		"/>
	<path fill="#FFFFFF" d="M632.354,187.229c-1.579-5.646-6.395-11.131-6.395-11.131c-0.449-1.476-6.93-7.361-9.813-8.262
		c-1.08-0.329-7.702-3.893-10.199-3.925c-2.442-0.016-4.873,0.222-7.25,0.743c0,0-11.129,4.504-14.079,6.216l-0.007,0.007
		c-3.615,3.434-7.159,8.244-7.735,13.681c-0.186,1.751-0.233,3.58,0.713,4.999c1.275,1.914,3.956,1.39,3.956,1.39
		c3.267-0.847,4.915,2.29,5.326,3.223c-0.017-0.016-0.086,0.241-0.34,1.305c-0.772,2.994-1.182,6.238-1.182,6.238
		c-0.554,2.229-0.516,4.711-0.516,4.711c0.677,2.587,2.469,5.102,2.469,5.102c1.115,1.967,2.548,3.737,4.192,5.273l0.091,0.072
		c2.469,1.956,5.325,3.428,8.376,4.198c1.123,0.275,3.089-0.449,3.089-0.449c5.879,0.811,12.174-0.425,17.427-3.337l0.073-0.049
		c4.552-3.06,8.196-7.494,10.389-12.675l-2.855-1.054l2.863,1.034c0.953-3.104,1.524-6.288,1.782-9.516
		c0.233-2.912,0.113-5.13-0.35-7.697L632.354,187.229z M586.875,194.175c0.069,0.156,0.106,0.257,0.106,0.257
		C586.833,194.682,586.89,194.228,586.875,194.175z M627.707,192.859c-0.192,3.145-2.481,9.592-2.481,9.592
		c-0.848,2.743-2.607,5.441-2.607,5.441c-2.207,2.714-5.277,4.587-5.277,4.587c-4.033,3.004-9.085,4.496-14.044,4.11l-1.611-1.264
		c-3.649-0.773-6.598-3.117-6.598-3.117c-1.463-0.931-2.81-2.051-3.928-3.382c0,0-0.711-1.264-1.019-2.199
		c-0.6-1.82-1.095-4.563-1.045-4.835c0.636-3.459,3.499-5.383,1.747-8.072c-0.65-3.581-3.873-7.081-7.651-7.309
		c-1.089-0.044-1.873,0.073-1.873,0.073c0.09-4.148,3.548-8.564,3.548-8.564c1.02-0.925,7.621-6.242,10.17-7.571
		c0.246-0.127,6.392-1.786,6.861-1.861c7.007-1.126,18.987,3.547,22.434,9.002c1.897,3.057,2.986,6.581,3.189,10.159
		c0.007,0.153,0.015,0.304,0.02,0.457C627.54,188.107,627.831,190.833,627.707,192.859z"/>
	<path fill="#FFFFFF" d="M837.604,297.451c-3.563-9.982-9.986-18.817-18.472-25.29c-12.194-10.24-27.866-14.47-43.564-15.375
		l-0.152-0.006c-7.08-0.184-14.181,0.296-21.126,1.656c-12.132,2.376-23.541,7.611-35.343,11.457
		c-1.71,0.558-3.183,2.82-4.908,3.301c-1.548,0.432-3.349-0.912-4.907-0.54c-16.416,3.918-33.416,4.618-50.247,3.409
		c-4.772-0.343-10.46-0.996-10.46-0.996c-8.536-0.371-17.068-1.239-25.516-2.629l-0.204-0.051
		c-26.425-6.72-51.449-18.567-73.276-34.773c-5.561-4.143-11.318-8.015-16.698-12.392c-3.075-2.501-6.078-5.089-9.007-7.759
		c-2.814-2.564-6.164-5.881-6.164-5.881c-3.94-4.36-7.704-8.875-11.284-13.53c-0.403-0.526-0.985-1.294-0.999-1.314
		c-0.072-0.111-0.525,0.281,0.238-1.012c0.348-0.59,0.698-1.178,1.05-1.765c14.954-24.938,33.32-47.947,56.223-65.363
		c6.894-5.243,14.431-10.835,22.96-13.048c0.245-0.061,0.512-0.141,0.758,0.028c1.954,1.326,1.761,3.633,2.099,5.694
		c1.15,6.63,6.13,11.842,12.034,14.562c9.365,4.313,19.062,2.164,27.35-2.723c12.517-7.378,17.46-22.86,13.092-35.741
		c-4.822-14.217-20.476-21.443-35.32-21.534c-0.293,0-0.586,0.001-0.879,0.004c-0.155,0.002-0.243,0.137-0.291,0.35l-0.009-0.345
		c-7.387,0.219-14.642,2.364-21.329,5.5c-13.778,6.459-25.151,16.39-35.754,27.107c-6.483,6.553-7.868,9.348-13.671,16.335
		c-1.027,1.235-2.557,0.5-5.588,4.264c-16.344,20.309-31.712,44.646-43.948,67.241l0.05-0.499
		c1.809-18.184,3.555-36.436,3.094-54.652c-0.256-10.17-0.851-21.728-8.095-29.489c-6.616-7.088-16.51-6.15-24.732-2.949
		c-6.425,2.128-12.369,5.374-18.052,8.993l-0.08,0.058c-4.768,3.401-10.933,6.954-11.992,13.171c-0.713,4.18,1.91,8.222,5.668,9.544
		c0.599,0.211,0.759,0.266,1.926,0.533c2.629,0.586,5.449,1.593,6.834,3.959c3.414,5.833,4.926,16.105,3.811,20.187
		c-0.461,1.685,0.053,3.977,0.195,5.711c2.188,26.707,2.971,52.748,3.851,79.069l0.034,1.726c0.083,4.461,0.162,8.923,0.242,13.386
		c0.069,3.798-0.132,7.896,2.312,10.547c5.412,5.869,17.02,5.146,21.784-1.546c0.591-0.83,1.252-1.607,1.925-4.322
		c2.847-12.117,6.551-23.932,11.21-35.428c2.849-7.029,5.501-14.321,9.908-20.242c8.229,11.798,16.921,23.225,26.147,34.222
		l0.085,0.089c1.488,1.531,2.981,3.057,4.493,4.569c31.877,36.36,70.063,68.599,115.242,83.688
		c25.634,8.562,52.973,10.006,79.405,5.219c23.519-4.261,45.565-14.715,65.476-28.119l0.977-0.695
		c3.516-2.511,7.009-5.062,10.635-7.407c9.723-6.288,22.049-6.367,32.224-1.46c5.143,2.52,9.879-1.34,9.015-5.691
		C837.814,298.133,837.802,298.03,837.604,297.451z M833.18,300.941c-0.006,0.002-0.097,0.035-0.135,0.04
		c-0.306,0.035,0.69,0.896-1.855-0.478c-5.692-3.073-12.39-4.822-18.998-4.815c-6.831,0.008-13.521,2.31-19.379,5.935
		c-1.427,0.883-2.834,1.796-4.235,2.717c-0.519,0.341-1.035,0.684-1.552,1.027c-1.77,1.18-3.534,2.365-5.304,3.547l-0.127,0.09
		c-12.669,8.928-25.991,17.082-40.535,22.231c-32.522,11.519-67.555,11.539-99.208,1.162
		c-44.802-14.688-82.482-46.423-113.998-82.058c0,0-1.54-2.006-2.6-3.404c-0.438-0.581-0.876-1.162-1.312-1.746
		c-9.053-10.48-17.651-21.427-25.785-32.687c-0.729-1.015-1.3-2.143-2.329-2.681c-3.05-1.594-5.138,1.894-6.708,4.626
		c-9.393,16.355-15.533,34.683-20.603,52.904c-1.16,4.228-4.178,6.741-7.803,7.129c-2.55,0.273-7.382,0.024-8.541-3.513
		c-0.067-0.203-0.103-0.274-0.127-0.644c-0.36-6.831-0.389-13.664-0.582-20.507l-0.005-0.37
		c-0.283-19.425-0.661-38.856-1.449-58.292l-0.03-0.617c-0.344-6.801-0.713-13.6-1.231-20.378c-0.128-1.671-1.509-0.6-1.657-2.269
		c-0.154-1.739,0.926-6.216,0.747-7.952c-0.835-8.073-1.109-16.34-6.369-21.196c-2.215-2.045-5.273-2.884-8.266-3.576
		c-2.982-0.716-3.21-2.893-2.424-4.477c0.064-0.129,0.132-0.255,0.204-0.379c0.104-0.178,0.215-0.352,0.333-0.521
		c0.142-0.205,0.293-0.404,0.452-0.597c0.188-0.229,0.387-0.449,0.594-0.662c0.308-0.317,0.633-0.617,0.973-0.9
		c6.831-5.695,14.743-12.273,23.239-15.364c4.752-1.729,10.001-2.772,14.604-1.148c9.161,3.231,11.003,14.632,11.622,24.527
		c1.522,24.334-2.24,47.881-4.798,71.476c-0.174,2.281,2.18,4.093,4.185,3.387c0,0,1.377-1.354,1.933-2.529
		c5.088-10.747,11.61-20.998,18.036-31.145c9.338-14.695,16.988-28.955,27.677-42.395c3.772-4.742,1.446,0.331,5.51-4.191
		c12.582-13.997,35.21-37.403,52.685-44.576c11.956-4.908,26.585-5.696,37.786,1.392c10.797,6.831,13.692,20.133,9.128,30.779
		c-2.939,6.854-9.446,11.45-16.495,13.898c-0.655,0.228-1.316,0.44-1.981,0.639c-7.123,2.129-17.192-0.532-21.392-7.833
		c-1.305-2.27-1.542-4.855-2.035-7.37c-0.84-4.285-4.724-7.46-8.538-6.47c-7.772,2.017-14.894,6.698-21.479,11.655
		c-24.758,18.637-44.148,44.226-59.469,71.439c-0.931,1.663-1.149,3.484-0.03,4.891c10.237,12.812,21.41,25.102,33.722,36.029
		c2.592,2.301,5.129,4.642,7.993,6.696c0.416,0.3,0.835,0.598,1.255,0.894c19.724,13.939,41.627,24.356,64.673,30.902
		c4.965,1.41,11.046,2.838,11.046,2.838c8.371,2.641,16.885,4.783,25.498,6.404l0.241,0.025c22.878,2.506,46.49,2.035,68.49-4.652
		c15.968-4.854,31.896-13.14,49.104-14.597c16.881-1.429,38.574,0.465,52.089,11.705c6.417,5.335,11.585,12.295,14.784,20.041
		c0.706,1.709,1.758,3.418,1.5,4.994c-0.055,0.337,0.08,0.359,0.186,0.326c-0.105,0.07-0.295,0.21-0.624,0.479
		C833.365,300.875,834.945,300.266,833.18,300.941z"/>
</g>
<rect fill="none" width="1200" height="400"/>
</svg>
